<svg id="圖層_1" data-name="圖層 1" xmlns="http://www.w3.org/2000/svg" viewBox="0 0 1200 1200"><title>machine back</title><path d="M676.55,585.91l7.17,1a2.63,2.63,0,0,0-.29,1.72c-.07.54-.13,1.09-.19,1.64-.84,2.66-1,5.48-1.85,8.15a6,6,0,0,1-3.12,3.9C674.52,597.17,676.34,591.46,676.55,585.91Z" style="fill:#53342e"/><path d="M395.89,545.83c.85-1,88.72,15.8,89.56,14.83.14,1.7-.05,4.76.48,4.89,5.25,1.32,11.74-.71,15.66.58,9.06,3,9.58-3.15,12.35-7.69l2.3,3.07c-1.09,4.79-2.65,9.58-.35,14.45-.77,4.51-.24,13-2.28,17.68-4.85,11.2-110.72-2.4-124.36-2.4C390.94,580.62,391.44,555.5,395.89,545.83Z" style="fill:#7c6166"/><path d="M390.39,594.54c6.88-2.9,95.14,0,102.93,0A13.7,13.7,0,0,0,501,592c9.77-6.57,18,0,15.23,15.4-.78,4.31-.14,8.75-.21,13.13-8.56,8-19.16,3.37-28.62,3.59-4.2.1-3,5.22-7,6.48-.83-.82-11.75,5.15-12.87,5.15-5.15,0-74.77-10-77.2-10.3" style="fill:#bfac90"/><path d="M516.48,661.45c2.89,11.67-11.91,5.94-16.75,6-31.42.12-62.84-.4-94.26-.72-5.11-.05-10.24-.31-14.91,2.35-.18-2.46-.35-4.93-.53-7.39a1.62,1.62,0,0,0,1.23-.67c.51-5.88-6.88-40.13-.87-40.7,10.41-1,30.8,5.32,41.74,7.24,14.29,2.51,29.43-.07,44-2.76,5-.93,32.71-6.55,37.8-4.48C521.61,622.47,516.48,648.58,516.48,661.45Z" style="fill:#dbd1ad"/><path d="M797.15,483.53a15.19,15.19,0,0,0,2,.56,9.29,9.29,0,0,1,3.75,3.68c1.13,2.77,2.61,5.42,3,8.45.06,5.59,0,11.17,0,16.76a16.62,16.62,0,0,1-.28,3.79,4.25,4.25,0,0,1-3.3,1.57c-4.06-1-6.36-4-8.44-7.32-4.62-6.64-3-15.47-7.79-22.1a14.21,14.21,0,0,1,1.28-9C793.08,474.53,793.67,483,797.15,483.53Z" style="fill:#4d0a16"/><path d="M797.15,483.53c-5.74,3.56-4.43-4.56-7.9-4.76-5,.75-5.3-3.39-5.92-6.38-1-5.09-4.16-8.18-8.37-10.59-3.28-1.4-5.72-3.87-8.23-6.27-3.58-3.78-9-5.5-11.72-10.25a4.66,4.66,0,0,1,.78-3.44,8.92,8.92,0,0,1,5.16-1.92c3.9-.09,7.33,1.43,10.75,3,4.72,2.17,8.23,5.45,9.58,10.66C787.35,463.18,794.3,472.27,797.15,483.53Z" style="fill:#44110a"/><path d="M789.24,489.05l7.67,20.63c-1.41,2.57.61,6.19-2.48,8.26a4.39,4.39,0,0,1-3.48-.52c-3.88-4.17-4.29-9.95-6.82-14.75-2.59-7.47-6.14-14.5-9.66-21.57a9.56,9.56,0,0,1,.24-5.7,5.17,5.17,0,0,1,6.49-2.88C786.41,476.8,787.2,483.22,789.24,489.05Z" style="fill:#2b0e0d"/><path d="M789.24,489.05q-3.9-7.69-7.78-15.4c-2.93-2.23-6.4-3.59-8.73-6.78-3.86-5.3-.81-7.18,3.68-8.68,9.39,3.68,9.21,13.31,12.84,20.58C789.25,482.19,789.24,485.62,789.24,489.05Z" style="fill:#3f061f"/><path d="M794.22,517.73c.25-2.9-.14-6,2.69-8l5.17,7.38c0,3.06-2.56,5.27-2.71,8.29-2.26,1.47-4.29,1.32-6.09-.77A5.86,5.86,0,0,1,794.22,517.73Z" style="fill:#2f0e08"/><path d="M755.84,445.3c5.42.67,9.06,4.3,12.82,7.74-1.86,4.89-7,3.16-10.3,5.11-25.69-3.55-51.87,1.7-77.41-4.32a36.08,36.08,0,0,0-7.62-.69c-8.61-.19-13.38,2.55-9.61,12.16a7.78,7.78,0,0,1-.08,5,5,5,0,0,1-5.1,2c-4.81-1.71-6.53-6-8.62-10.07a28.61,28.61,0,0,0-1.71-3.3,17.89,17.89,0,0,0-13-4.6c-26.8,2.43-53.56-2.46-80.33-.13a13.75,13.75,0,0,1-3.39.14c-2.37-.77-3.77.39-4.69,2.47s-2.08,4-3.28,5.91c-1.45,1.91-2.75,4.08-5.7,3.62-8.14-14.38-11.28-16.06-28.74-13.23-12.63,2.07-25.07,3.69-38,1.51s-25.29,1.34-37.56,4.94c-4.4-.46-9.33.22-11.45-5.24-.76-6,2.94-8.39,7.95-9.29,4.57-.83,8.81-2.89,13.49-3.28,99.28-.59,198.54-.15,297.8-.23C746.48,441.55,751.73,441.27,755.84,445.3Z" style="fill:#3a061c"/><path d="M436.51,442.42l303.88.31c5.12,0,10.24.36,15.35.55,0,.67.06,1.34.1,2H439.26c-2.66,1.06-3-.21-2.45-2.43Z" style="fill:#3c0505"/><path d="M760.94,455.6l7.72-2.56c2.62,1.67,3.9,5.35,7.75,5.15-6.44,7.81,4.35,10,5,15.46-2.29.09-4.22.81-5.31,3-2.32,1.56-4.32.78-6.23-.82a23.18,23.18,0,0,1-3.74-5.56c-1-1.9-2-3.84-3.12-5.72C761.91,461.69,758.8,459.26,760.94,455.6Z" style="fill:#2e0618"/><path d="M794.73,527.68c0,7.07,7.23,13.43,2.13,21a2.78,2.78,0,0,1,.09,1.8,3.57,3.57,0,0,1-3.09,1.55c-5.35-1.76-6.6-6.78-8.84-11-2.51-6.13,4.65-10.23,3.35-16.13a17.28,17.28,0,0,1,.52-3.59,6.72,6.72,0,0,1,3.26-4.31,4.76,4.76,0,0,1,2.07.73c.2,2.41.41,4.81.61,7.22.74.63,1,1.25.69,1.84S795,527.68,794.73,527.68Z" style="fill:#a38c7f"/><path d="M777.08,480.91c5,6,7.77,13.19,9.85,20.65a5.71,5.71,0,0,1,.13,5.91c-8.09,3.15-12.86-5.24-20.15-5.68-20-1.21-40.08-2.2-60-.07a132.94,132.94,0,0,1-29.17.06,12.16,12.16,0,0,1-7.5-6.1,7.17,7.17,0,0,1-.36-3.61c5.13-4.14-2.77-10.12,2-14.36,15.62-2.31,31.36-.32,47-.79,14-.41,28.18.44,42.26.3C767,477.17,772.15,478.11,777.08,480.91Z" style="fill:#eceacf"/><path d="M786.35,507c.19-1.83.39-3.65.58-5.47,3.26,4.63,4.29,10,5.22,15.43-.22,1.8-.45,3.59-.67,5.38-3.13,2-6.69,2.79-10.3,3.53a38,38,0,0,1-4,.27c-30.26.31-60.51-.26-90.73.12-2.71.21-5.07,1.68-7.69,2.24-4-.07-5.83-2.84-7.35-6a13.74,13.74,0,0,1-.84-4.09c.14-4.64,1.75-8.36,6.41-10.14,33.63-1,67.27-.25,100.9-.14C780.82,508.17,783.75,509.22,786.35,507Z" style="fill:#d5c8a7"/><path d="M777.08,480.91c-33.41,0-66.83,1.06-100.21-1-2.09-.13-4.32-1-4.84,2.16-1.08,2.4-2.91,3.2-5.43,2.53-3.79-2.74-3.76-6.26-2-10.12,4.56-5.11,10.85-4.37,16.64-4.45,24.66-.35,49.33-.11,74-.17a31.58,31.58,0,0,1,15.85,4l5.12,2.82Z" style="fill:#d4beae"/><path d="M539.2,465.61q1.47-2.53,3-5.07c5.61-4.21,12.22-3,18.44-3,28.37-.27,56.77-2.1,85.11,1,2.54.29,5.1.34,6.83,2.65l6.17,9.9a4.51,4.51,0,0,1-1.1,4.19,13.32,13.32,0,0,1-10.51,3.78c-30.12-2.07-60.15,2.63-90.27,1-6.4-.35-12.74-.46-18.43-3.94a6.23,6.23,0,0,1-3-5.54C535.72,468.17,537.26,466.74,539.2,465.61Z" style="fill:#75555c"/><path d="M539.2,465.61l-1.85,2.82c-2.28,2.8-2.48,8.68-8.6,5.76a12.1,12.1,0,0,1-2.67-3.08c-2.84-6.38-8.55-6.27-14.19-6.18-24.36.39-48.74-1-73.09.85-3,.23-6,.38-8.79-1.06-3.42-3.14-.77-4.8,1.59-6.53,13.32-8.63,28.51-9.84,43.09-7.16,12.32,2.27,23.6.26,35-2.45,8.13-1.93,16.07.11,23.76.4C541.41,449.27,535.34,460.44,539.2,465.61Z" style="fill:#3b152a"/><path d="M760.94,455.6l5.17,7.7c-2.07,1.89-4.51,1.87-7.16,1.72-26.43-1.49-52.87.85-79.3,0-4.51-.15-8.5.5-11.2,4.55A9.67,9.67,0,0,1,664.8,472l-2-.85c-.81-6.44-9.84-11.71-4.67-18.41,4.92-6.39,14.07-4.58,20.34-3C705.69,456.54,733.76,449.67,760.94,455.6Z" style="fill:#38142d"/><path d="M652.54,461.21c-25.83-.11-51.66-.11-77.49-.38-11-.11-22,2.36-32.89-.29l2.61-5A13.21,13.21,0,0,1,550,453h2.54c27.64-1,55.27,1.4,82.92,0,6-.3,12.83-.59,17.44,5.14C652.75,459.17,652.64,460.19,652.54,461.21Z" style="fill:#421c32"/><path d="M652.85,458.11c-6.28-2.91-12.73-3.13-19.68-3-24.58.62-49.19.31-73.79.36-2.62,0-5.07-.42-6.89-2.55,5-6.94,12.41-2.86,18.21-3.06,20.72-.7,41.42,2.4,62.28.76C640.08,450.11,648.42,449.91,652.85,458.11Z" style="fill:#3b152a"/><path d="M431.61,458.18c-.85,1.78-1.69,3.56-2.54,5.33,1.67,5.93-4.1,8.74-5.53,13.37l-3,6c-3.38,5.3-2.92,12.51-8.31,16.83a5.77,5.77,0,0,1-3.45.47c-2.52-1.27-2.87-3.62-3-6.06-.06-14.27,12.19-23.24,15.49-36.05l2.52-2.55Z" style="fill:#2d0d19"/><path d="M657.65,473.94c.35-.94.71-1.88,1.06-2.83h4.06l.44-.1c1.5,1.52,1.33,3.41,1.23,5.29-.16,2.46.35,5.3-3.33,5.7C657.76,480.24,656.64,477.55,657.65,473.94Z" style="fill:#240605"/><path d="M550,453c-1.18,1.95-3.06,2.5-5.18,2.57,1.92-1.79-.15-5.67,3.33-6.41C548.43,449.11,549.32,451.65,550,453Z" style="fill:#3b152a"/><path d="M665.31,470.79c1-4.17-.8-10.27,6.65-10,31.37,1.23,62.9-3.05,94.15,2.49l2.66,5.18c-.64.57-1.3,1.48-2,1.49C733,470.5,699.16,474.39,665.31,470.79Z" style="fill:#7a5e64"/><path d="M665.31,470.79l103.46-2.31c.75,1.79,1.51,3.58,2.26,5.36q-50.71.24-101.43.42a4.3,4.3,0,0,0-4.15,2.14c-1,.94-1.68.75-2-.57-.06-1.61-.12-3.23-.19-4.84C663.92,471,664.62,470.88,665.31,470.79Z" style="fill:#88665d"/><path d="M398.08,731.39l-7.3-.8-3-2.52v-2.33a9.07,9.07,0,0,1,7.31-2.37c3.33.28,6.61.94,10,1.2a52.59,52.59,0,0,0,10.71-.58c18.81.09,37.61.84,56.43.55q10.76.11,21.5,0c13.77.81,27.53-1.85,41.3-.08,40.63.21,81.27-.38,121.9.06,6.53,0,13-1.68,19.6-.27,34.75-.82,69.5-1.24,104.24.13,3.72.35,7.52-.1,11.23.66a10.85,10.85,0,0,1,4,1.67,2.75,2.75,0,0,1,.93,3.73l-2.57.92q-135.06-.21-270.17-.4C482.16,730.94,440.14,731.24,398.08,731.39Z" style="fill:#260306"/><path d="M387.81,723.24c0-4.23,2.26-4,5.1-2.61,2.43,1,3.8,2.44,2.59,5.21l-7.67-.1C387.82,724.91,387.81,724.11,387.81,723.24Z" style="fill:#2a0619"/><path d="M383.71,614.49c12.18-4.38,16.37,33.51,12.18,46.52-.61.5-10.46,23.87-11.07,24.36-.61-.27-5-24-5.54-24.36C379.17,647.66,371.16,619.11,383.71,614.49Z" style="fill:#bfad92"/><path d="M781.48,543.05l5-2.77c5.29,1.61,4.42,8,8.32,10.7l-5.35,6.13A2.15,2.15,0,0,1,788.4,560l-.11,0c-6.17,1.6-88.45-1.93-94.24-4.12-1.09-.67,3.19-11.75,2.57-12.86C697.94,535.42,772.76,542.66,781.48,543.05Z" style="fill:#988077"/><path d="M791.69,525c-3.35,1.75-6.76,3.71-7.67-2.38,2.45-1.48,4.93-1.86,7.47-.21C791.55,523.24,791.62,524.11,791.69,525Z" style="fill:#d4bcab"/><path d="M786.35,507c-2.2,5.76-7.2,5.11-11.88,5.14-31.45.26-62.91.54-94.36.6-1.15,0-2.31-2.25-3.47-3.45a5,5,0,0,1-2.59-2.9c-.61-2.82-.3-5.34,2.33-7.1a793.92,793.92,0,0,1,91.51-2.21C775.68,497.41,780.08,503.93,786.35,507Z" style="fill:#ecebcc"/><path d="M663.4,475.83l2,.57c1.07,2.5-.76,6.36,3.45,7.4,2.54,2.07,3.78,4.53,2.29,7.79a2.51,2.51,0,0,0,0,2.41c1.23,3.65.75,7.43.9,11.18.13,5.16,0,10.31.11,15.47.38,4.4,3.43,9.26-2.18,12.63-4.23-.17-4.78-3.88-6.4-6.59a29.57,29.57,0,0,1-2.7-10.72c.07-3.61-.78-7.12-1.25-10.69-.35-7-3.56-13.89-1.36-21.08a6.08,6.08,0,0,1,2.64-2.91Z" style="fill:#35211a"/><path d="M668.91,504.51c-.81-3.84.27-7.27,2.26-10.51l5.21,5.32c-.1,2.59-.19,5.18-.29,7.77C672.73,508.92,671.08,506,668.91,504.51Z" style="fill:#9a867b"/><path d="M671.19,491.59c-1.59-2.36-3.7-4.56-2.29-7.8L672,482c3.11,1.79,5,4.54,4.51,8C676.44,490.79,673.08,491.11,671.19,491.59Z" style="fill:#fcf8e7"/><path d="M781.59,522.55c-2.22,2.51-5.21,2.5-8.21,2.5h-84c-3,0-6,0-8.17-2.54Z" style="fill:#d4bcab"/><path d="M668.67,532.76c3.64-4,1.58-9.08,2.57-13.58a1.41,1.41,0,0,1,1.74,1,1.16,1.16,0,0,1,0,.42,1.86,1.86,0,0,0,.51,1.88,46.52,46.52,0,0,1,3.65,17.77c-.72,5.73,1.85,12.52-5.2,16.22-6.63-3.48-3.81-10.64-6.18-15.79C665.56,537.61,665.92,534.75,668.67,532.76Z" style="fill:#3e2318"/><path d="M673.83,539.56q-.15-8.55-.29-17.08l5,5.09c.08.93.17,1.85.25,2.78,2.43,3.83,3.8,7.87,2.47,12.45a9,9,0,0,1-1.9,3.12,4.67,4.67,0,0,1-3.46.36C674.47,544.26,674.72,541.74,673.83,539.56Z" style="fill:#d4bcab"/><path d="M673.08,520.6a11.17,11.17,0,0,1-1.79-1.42c1.29-5.22-4.84-9.26-2.33-14.67,3.9-3.32,4.74,1.84,7.18,2.58.22.73.4,1.47.55,2.23C674.08,512.64,673.59,516.63,673.08,520.6Z" style="fill:#b69d91"/><path d="M660.93,481.29c-.22.85-.45,1.71-.67,2.57-3.35,2.21-7.19,2.47-11,2.74-32.78,2.3-65.57,2-98.37.59-6-.26-12.22-.29-15-7.27-.54-2.3-.45-4.42,1.72-5.93,40,4.43,80-.49,120.08-.05Z" style="fill:#e8e5ca"/><path d="M633.34,467.73H560.7v-1.15h73.73Z" style="fill:#614244"/><path d="M537.57,474l-1.3,4.42c.85,4.16,1,8-4.26,9.39a5.45,5.45,0,0,1-3.69-1.37,10.17,10.17,0,0,1-2-5.71c.09-2.88.72-5.49,3.43-7.11,3.84.19,4.72-4,7.62-5.18C537.42,470.28,537.5,472.11,537.57,474Z" style="fill:#280604"/><path d="M421,475.83c.47-5.55,6-7.82,8.05-12.32,31.88-5.68,64.05-1.58,96.06-2.65,11-.36.47,7.82,3.67,10.79-3.13,5.8-8.85,6.44-14.33,6.37-27.93-.35-55.86-1-83.79.14C427.39,478.3,423.85,478.22,421,475.83Z" style="fill:#7e6366"/><path d="M421,475.83c29.64-4,59.43-.91,89.14-1.71,6.4-.17,12.65.17,18.64-2.47a3.71,3.71,0,0,0,.93,2c-.18,2.55-.37,5.09-.55,7.63a12.79,12.79,0,0,1-4,2.31c-31.71,4.16-63.58,1.64-95.38,1.94-4.22,0-8.55-.53-11.46-4.36Z" style="fill:#e0c6b8"/><path d="M418.34,481.11c33.59-.26,67.19,1.38,100.76-.87,2.85-.2,5.78.86,8.67,1.33,1.11,8.72-2,15.8-8.38,21.6-12.74,1.55-25.08-2.45-37.7-3.23-19.37-1.21-37.87,3.73-56.87,4.35-4.23.14-8.38,1.37-12.44-.73-1.74-1.36-3-2.9-1.81-5.25C414.15,493,412.44,485.36,418.34,481.11Z" style="fill:#edebd0"/><path d="M410.57,498.33l2.93,3.61c13.4.2,26.77-.14,40.16-.84,17.9-.94,35.81-1.36,53.68.84,6.85.85,10.5,3.69,6.92,11.07-4.69,3.83-10.37,3.58-15.9,3.73-29.47.79-59-1.42-88.43,1.41-2.84.28-5-.63-6.16-3.38,1-5.59,1.52-11.31,4.65-16.3A15.42,15.42,0,0,0,410.57,498.33Z" style="fill:#e9e3c1"/><path d="M399,530.26c-.76-5,2.72-8.6,4.33-12.82,9.45,2.66,19,3.77,28.78,2a62,62,0,0,1,20.3.08,150.86,150.86,0,0,0,41.91,0c7.87-1,16.1-3.11,23.05,3.18a8.77,8.77,0,0,1,1.36,5.6c-2.41,12.66-13.55,9.25-21.55,11.7-4-.12-7.87-1-11.86-.85H431.34c-4.09-.12-8.21-.26-10,4.64a9.39,9.39,0,0,1-2.41,2.5,6.09,6.09,0,0,1-3.41-.11c-2.35-1-4.15-3.81-6.67-3.57C399,543.47,399.16,536.82,399,530.26Z" style="fill:#c1aa91"/><path d="M516.47,525.11c-7.12-4.69-14.8-2.63-22.24-1.51-14.45,2.17-28.83,2.47-43.23-.17-6.81-1.25-13.61-1.68-20.24.68-9.14,3.24-17.71-1.51-26.59-1.86-.35,0-.59-3.11-.88-4.77l.48-2.67c36.61-5.31,73.45-1.29,110.16-2.6,1.26-1.56,2.24-3.51,4.71-3.33,2.23,1.83,6.4-.77,7.67,3.35,1.7,5.54,1,10.36-4.12,13.86A5.47,5.47,0,0,1,516.47,525.11Z" style="fill:#d7c9a9"/><path d="M399,530.26c3.07,2.87.32,13.55,10.91,6.79,4-2.55,86-2,88.6.88,0,.53,7.71,7.19,7.72,7.72-.43,2.15,1.34,16.31,0,18-2.36,1.91-95.68-4-100.17-5.26l-5.36-5.52c-1.66-2.4-4-4.38-4.6-7.43Q397.52,537.85,399,530.26Z" style="fill:#96827b"/><path d="M796.92,730.44v-2.08c-2-2.47-1.09-4.53.88-6.45,2.73-2.25,6.87-1.75,9.23-4.74,3.59-3.29,3.84-10.64,11.25-9.3.64,1.82.74,3.57-.61,5.15v5.09a38.49,38.49,0,0,1-13.34,12.56Z" style="fill:#37030c"/><path d="M784.08,728.34l-108-.05c-2.1-5.51-7.93-11.32,1.31-15.93,34.41-1.58,68.81-1.43,103.2-.16A9.85,9.85,0,0,1,787,717C788.69,721.42,786,724.77,784.08,728.34Z" style="fill:#380d2b"/><path d="M395.5,725.84c-.87-1.74-1.73-3.47-2.59-5.21l.15-2.59c11.87-10.79,25.43-3.49,37.81-2.45,26,2.2,51.85.65,77.77,1.06,4,.07,7.23-2.26,10.42-4.36,2.3-1.36,4.19-3.29,6.44-4.71a4.32,4.32,0,0,1,5.12,1,47.41,47.41,0,0,1,4,6,17.51,17.51,0,0,1,2.26,5,8.71,8.71,0,0,1-2.36,8.6H493.21a36.16,36.16,0,0,0-20.36,0H413.46q-5.07-4.29-10.12,0C400.45,728.34,397.51,728.6,395.5,725.84Z" style="fill:#3b0922"/><path d="M534.52,728.25V718.08c6.6-2.59,13.47-.94,20.2-1.14,34.8-1.05,69.6-1.15,104.41,0,6.16,4.41,1.83,7.8-1.1,11.33Z" style="fill:#360c29"/><path d="M658,728.26l2.58-10.15c.37-4,4.67-6.44,4-10.78,0-1.72.14-3.44.3-5.17a13.83,13.83,0,0,1,3.17-8.2,11.19,11.19,0,0,1,4.64-2.77,7.48,7.48,0,0,1,3.61.18,6.43,6.43,0,0,1,3.35,4.1,15.79,15.79,0,0,1-1.41,7c-1.93,4.2-.66,9.6-4.78,13,2.24,4,6.69,7.58,2.59,12.86Z" style="fill:#390922"/><path d="M786.71,720.62c-.86-1.66-1.71-3.32-2.57-5,5.06-5,11.09-5.2,17.51-3.64,3.53,4.51.64,7.82-2.1,11.15q-1.34,2.6-2.65,5.2c-.86,0-1.71-.09-2.56-.16C792,725.52,787.87,724.54,786.71,720.62Z" style="fill:#3b161f"/><path d="M786.71,720.62c4.72.33,7.39,2.74,7.63,7.58l-10.22.14C782.08,724.8,782.72,722.11,786.71,720.62Z" style="fill:#301434"/><path d="M472.85,728.25q10.2-5.78,20.36,0Z" style="fill:#3f1431"/><path d="M403.34,728.25c3.37-8.32,6.74-8.36,10.12,0Z" style="fill:#3f1431"/><path d="M392.74,707.84c.2-1.75.41-3.5.61-5.25,2.34-3,5-5.52,9-6.17,32.92-.17,65.85-.25,98.77-.62,5.13-.06,10.27.13,15.41-.34a7.83,7.83,0,0,1,6.34,2.39c2.67,4.52,2.19,8.85-.75,13-12.27.21-24.53-1.29-34.92-.51,8.5,1.19,19.52-2.41,30.13,2.68-3.78,6.64-9,4.89-13.33,4.92-34.07.22-68.16.76-102.09-3.54-3.73-.48-6.49-1.5-8.79-4.22A16.78,16.78,0,0,0,392.74,707.84Z" style="fill:#532753"/><path d="M393.08,710.22c18.13,1.74,36.23,4.27,54.4,5,21.75.87,43.56.2,65.4-.66-13.84-3.65-28.63,1-42.2-5.33,17-.63,34-3.65,50.85,1.09,2.35-.65,3.55-.12,2.66,2.58-5.54,6.12-12.35,8-20.6,7.87-32.31-.63-64.71,1.46-96.83-4.33-4.34-.78-9.14,1-13.74,1.6Z" style="fill:#3f1431"/><path d="M390.69,684.38q-.07-7.68-.13-15.34c4-7.51,11.38-6.64,18-6.68,27.72-.13,55.45-.31,83.17.08,5.38.08,11.31,1.7,15-4.22,1.85-3.41,2.41-8,7.64-8.31,8.32,6.67,2.3,15.31,3.18,23,0,1.3.07,2.58.12,3.88.42,4.38-.79,7.9-5.08,9.84-39.55,2.8-79.09-2.67-118.65-.08A7.41,7.41,0,0,1,390.69,684.38Z" style="fill:#947b76"/><path d="M390.69,684.38c.67.2,1.35.36,2,.5,10.74,3.5,21.69.4,32.52,1,5.84.32,11.89-.78,17.18,2.85,5.59,8.23-.79,8.36-6.09,8.64-11.49.6-23-.37-34.49,0-3.24.23-6.36,0-8.85-2.47C391.31,691.59,389.88,688.23,390.69,684.38Z" style="fill:#5c3d46"/><path d="M393,694.9l7.72.12a3.25,3.25,0,0,1,.33,4.59,3.51,3.51,0,0,1-.33.34l-7.34,2.64Z" style="fill:#6e4d52"/><path d="M699,553.35c.12.82.22,1.63.28,2.45,2,4,1.5,8.91,4.47,12.59,1.73,3.73,2.08,7.81,3,11.75a11,11,0,0,1-.53,4.21c-6.35,7.66-9.87,2.46-12.3-3.22-2-4.57-1-9.79-1-14.72-.29-2,1.35-4.86-.68-5.87-2.47-1.22-3.4,1.51-4.29,3.45-1,2.14-2.51,3.32-5,2.22a9.75,9.75,0,0,1-2.32-5.39,12.25,12.25,0,0,1,2-8.09C688.31,548.11,693.87,545.41,699,553.35Z" style="fill:#907273"/><path d="M699,553.35c-5.07-4.18-10.15-.8-15.23,0-2.24-1-4.9-1.14-6.4-3.48a4.23,4.23,0,0,1,1-4.31l.31.12c5-9,11.57-11.45,20.37-5.06Q699.09,547,699,553.35Z" style="fill:#9b8478"/><path d="M789.26,545.65c-6,4.19-104.8-5.79-110.56,0,0-5.11-2.69-15.5-2.67-20.61,3.11,1.24,107.87,0,113.23,0C794.41,525.11,798.8,539,789.26,545.65Z" style="fill:#ad9784"/><path d="M797.92,542.51c.71,1.62,3,34.61,6.64,42.08,1.59,3.69-4,3.89-7.73,5.14a58.26,58.26,0,0,1-31.34,1.3c-4.56-1-6,12.47-4.54,8.66,1.82-4.87-59.49,2.6-59.18-2.57.41-4.06-7.71-40.87-5.15-43.75C701.7,554.11,795.84,537.81,797.92,542.51Z" style="fill:#7e6268"/><path d="M532.08,486.5c4.29-1.19.51-6.6,4.22-8.09,7.31,8.39,17.58,4.94,26.08,5,28.52.36,57.12,2,85.64-1.24,3.79-.43,8.57-1.6,12.27,1.65-1.43,8,6.69,15,2.43,23.24-.8,1.55-1.81,3.18-3.7,3-35.29-3.27-70.66-.88-106-1.72-5.38-.13-11.34-1.47-15,4.51a9.17,9.17,0,0,1-3.57,2.51c-6-1-5.56-6-6.16-10.25-.1-2.18-.11-4.37-.08-6.56C528.21,494.11,528.56,489.83,532.08,486.5Z" style="fill:#ecebcc"/><path d="M534.42,514.67q.12-1.17.18-2.34c13.88-8.32,29.11-2.69,43.64-3.8,21.51-1.65,43.15,4,64.84,0,7.34-1.36,14.41.42,19.88,6.19-1.38,4.14,3.27,6.52,3,10.33-3,4.7-7.74,4.17-12.44,4.09-15.14-.25-30.28-.18-45.42.42a10.64,10.64,0,0,0-7.66,3.25,5.23,5.23,0,0,1-3.75.82,8.25,8.25,0,0,1-2.83-2.45c-7.22-12.55-18.33-6.38-28.27-5.82-4.56.46-8.43-1.4-12.23-3.53-5.5-2.19-10.9,1.43-16.39.3a7,7,0,0,1-3.26-2A4.6,4.6,0,0,1,534.42,514.67Z" style="fill:#d8caaa"/><path d="M663,514.7a56.23,56.23,0,0,0-30.12-.74c-15.55,4-31-2.15-46.8-1.12-17.07,1.11-34.29-.24-51.44-.51,2.16-6.12,5-8.65,12.9-8.34,28.09,1.1,56.24.44,84.37.5,10.34,0,20.77-.88,30.82,2.61C662.27,509.65,664.94,512.11,663,514.7Z" style="fill:#e8e1bd"/><path d="M599,532.81c-.38-6.3,2.4-7.43,8.59-7.3,19.47.4,39-.24,58.45-.48,3.71,1.6,1.71,5.18,2.68,7.73-.13,2.59-.26,5.19-.38,7.78a1.88,1.88,0,0,1,.86,1.92c-.17.66-.36,1-.57,1-9-4.87-17.7-7.36-24.16,3.89-2.82,2.35-5.53,5-9.73,3.88a6,6,0,0,1-1.56-4.93c.34-3,3-6.06-.57-8.79-7-2.18-14-.55-21-1.07C607.08,536.16,602.26,537,599,532.81Z" style="fill:#b4a186"/><path d="M668,542.83a17.54,17.54,0,0,1,.33-2.29c3.65,4.54,1.74,10.18,3,15.19,2.37,2.17,3,5,3.18,8,.09,4.42.34,8.85-.56,13.23-3.19,7.19-6.19,6-8.55-.41-2.2-6,.14-12.71-2.43-18.73a18.56,18.56,0,0,1,.28-8.45A12.33,12.33,0,0,1,668,542.83Z" style="fill:#9f817d"/><path d="M671.29,563.63v-7.9c4-4.89,1.12-10.87,2.54-16.17l2.16,6.1c1.65,4.31,3.61,8.56,2.56,13.4a8.5,8.5,0,0,1-3.52,4.76A3.38,3.38,0,0,1,671.29,563.63Z" style="fill:#4c2c2a"/><path d="M675.57,561.21l.42-15.55a17.53,17.53,0,0,0,2.4-.11l.36,5.29c5,5,2.39,10.64,1.56,16.17-1.2,1.76-2.63,2.85-4.86,1.73C673.7,566.2,674.56,563.7,675.57,561.21Z" style="fill:#cdada9"/><path d="M523.63,509.59c-1.74,1.52-3.54,6.24-5.13-.09-1.81-2.72-1.51-5.24.7-7.59l8.56-20.32a10.15,10.15,0,0,1,1.42-.35c.29,1.74.57,3.48.86,5.21.86,2.42.57,4.89.36,7.36-2.42,4.91,1.19,11.73-4.89,15.48Z" style="fill:#9a8873"/><path d="M529.08,493.4l1-7,2,.05-1,12.68C526.54,498.6,528.56,495.74,529.08,493.4Z" style="fill:#210505"/><path d="M519.2,501.91q-.35,3.79-.7,7.59l-4.57,2.67c.41-8.75-5.86-7.82-11.35-7.67-28.7.78-57.43-1.53-86.13.78-2.09.17-2.66-1.6-2.95-3.34,23.53-1.08,46.46-8,70.49-5.61C495.94,497.51,507.64,498.93,519.2,501.91Z" style="fill:#edebcd"/><path d="M498.32,538c3.72-8,14.24.24,18-7.59,2.62,1.82,3.3,4.53,3.48,7.49a11.56,11.56,0,0,1-2.42,8c-7.35,3.46-13.56,1.35-19.11-4A3.77,3.77,0,0,1,498.32,538Z" style="fill:#a59081"/><path d="M516.55,537.81c-.07-2.47-.15-4.94-.22-7.41,0-1.77.09-3.55.14-5.33l4.6-.08c1.92,1.16,2.39,3,2.38,5.07C522.31,533.67,522.37,538.36,516.55,537.81Z" style="fill:#c9b39f"/><path d="M521.17,530.23c0-1.75-.07-3.49-.1-5.24a23.45,23.45,0,0,0,2.56-15.4l1.2.22c2.68-1,4.2.4,5.34,2.58.28,3.94,1.34,7.83.83,11.84-1.31,5.21.34,11-2.92,15.84a4.7,4.7,0,0,1-3.37,1.43,5.94,5.94,0,0,1-4.16-3.67C520.39,535.27,520,532.69,521.17,530.23Z" style="fill:#3f2618"/><path d="M809.89,653.79c3.7-2.7,5.32.65,7.44,2.54l-.09,51.21-7.41,13.09c-10.06-.8-7.85-9.59-7.33-14.42.94-8.85.26-17.77,1.7-26.54C808.49,671.58,802.81,661.27,809.89,653.79Z" style="fill:#140a24"/><path d="M807.37,679.54c-.61,9.72,1,19.52-2.22,29.15-1.55,4.59-.55,9.4,4.68,11.94-2.75,3.59-6.7,2.33-10.28,2.53q1.22-5.16,2.45-10.32a10.49,10.49,0,0,1-3.06-6.54,27.44,27.44,0,0,1,.42-7.24,26.41,26.41,0,0,1,.79-3.44c1.74-5.09.85-10.35,1-15.55v-3.69a21.56,21.56,0,0,1,.59-5.72,7.63,7.63,0,0,1,3.37-4.77,2.81,2.81,0,0,1,3.26,1.7C808.25,671.6,809.56,675.71,807.37,679.54Z" style="fill:#30071b"/><path d="M807.37,679.54l-.42-13.6c-6.38-13.94-3.13-28.37-2.13-42.7a6.34,6.34,0,0,1,3.31-3.1c3.73,11.05.77,22.46,1.76,33.65C808.75,662.35,812.36,671.37,807.37,679.54Z" style="fill:#230d1a"/><path d="M807,604.34l.3,2.71a3.39,3.39,0,0,1,.27,4.81l-.18.19q.39,4,.76,8l-1,.13C798.55,615.05,799.44,609.73,807,604.34Z" style="fill:#4e2311"/><path d="M688.9,594.54c8.22-2.63,85.75,1.86,94.08,1.44,6.52,0,13.12.74,19.4-1.88a7.4,7.4,0,0,1,3.4-.27l1,1.36.15,9.15c-4.72,5.36-3.37,10.66.17,15.93q-.09,22.83-.2,45.67a14.23,14.23,0,0,1-1.84,1.44,7.07,7.07,0,0,1-2.88-3.12,18.2,18.2,0,0,1-1.1-6.15c-.16-6.6,0-13.21-.11-19.81-.71-3.66,1.16-7.84-2.22-11-8.33-1-16.55-3.35-25-1.12-2.65,1-4.88,3.21-8,2.65-3.53-1.45-16.37,5.08-20.21,4.31-12.86-2.57-60-5.34-64.33-5.14" style="fill:#bfac90"/><path d="M801.94,705.11l.06,7.7c-5.83,1.71-11.7,3.22-17.86,2.81l-110.65-.22c.48-5.24-1.62-10.85,2.26-15.59,12.14,5.21,25.33,5.76,37.57,3.58,22.69-4,44.8,1.39,67.18,1.37C787.58,704.78,794.85,703.36,801.94,705.11Z" style="fill:#4a213b"/><path d="M668.08,702.45l.09,5.2c-1.73,3.88-4.92,5.62-9,6.13-14.28,0-28.65,1.84-42.74-2-10.32.13-20.74-1.58-30.9,1.67-13.93.68-27.87.71-41.8.67-5.1,0-10.22.08-14.33-3.72l-2.52-2.85c-2.52-2.87-2.41-5.73,0-8.59,16.28-3.68,31.4-5,48.59,1.38,11.64,4.33,27.71,2.22,41.38-1.79,12.58-3.69,25.37-3.07,38.17-2.67C660.38,696,665.34,697.11,668.08,702.45Z" style="fill:#522e42"/><path d="M616.81,707.81c14.39,4.57,29.23,1.72,43.84,2.6,1.57,2.79.78,4.89-2,6.2-3.59,1.69-7.48,1.54-11.29,1.42-33.5-1-67,.18-100.51,0-5.11,0-10.2-.16-14.91-2.55-2-1.18-2.49-3-2.48-5.16H586C596.08,706.87,606.74,711.3,616.81,707.81Z" style="fill:#4d2244"/><path d="M531.94,715.51c38.71,0,77.42.07,116.12-.11,4.57,0,10.76,2.54,12.59-5l7.53-2.76c1.1,6.12-3,8.47-7.59,10.43-9.73,4.77-20.4,3.59-30.12,2.19-25.9-3.76-51.54,2.35-77.29.41-6.3-.48-12.82.92-18.68-2.6Z" style="fill:#3a1030"/><path d="M526.86,700c0,2.5,0,5,.08,7.49q-1.35,2.7-2.72,5.4l-2.66-2.58-.09-12.66c-4.46-5.26-3.77-11.19-2.23-17.23.77-2.26,2-4,4.69-4.08,5.42,3.94,6,9.82,6.33,15.8A12.15,12.15,0,0,1,526.86,700Z" style="fill:#360b1d"/><path d="M526.86,700v-7.79c3.34-7.23,9.78-7.12,16.33-7.07,34.1.28,68.19,0,102.29.21,8.52.06,17-.49,25.45-1.18,3.21,3.63,2.19,7.19-.2,10.72-2.56,1.93-2.16,4.9-2.64,7.56a115.42,115.42,0,0,0-50.28.47c-14.74,3.33-29.81,5-45.23-1.59-8-3.42-18.46-1.09-27.81-1.27C538.8,700,532.83,700,526.86,700Z" style="fill:#5d3a50"/><path d="M801.94,705.11c-5.15,4.54-11.16,6.83-17.77,4.6-7.15-2.42-14.46-1.15-21.61-2.08-25.13-3.27-50.21.25-75.31.11-5.76,0-11.66.52-11.5-7.93l2.64-4.82c1.05-.76,2.22-1.58,3.49-1.35,28.27,5.1,56.93-3.35,85.21,2.45,7.19,1.47,14.24-2.34,21.6-1.47,4.63.54,9.37.2,13.51,2.93C802.08,700.11,802.08,702.62,801.94,705.11Z" style="fill:#59384d"/><path d="M802.2,697.58c-14.51,0-28.75,3.36-43.58.86a107.63,107.63,0,0,0-36.43,0c-15.27,2.77-29.39.12-43.8-3.41l-2.81-2.64a5,5,0,0,1,.28-5.82,7.27,7.27,0,0,1,6-.72c4.12,3.5,8.76,1.6,13.27,1.3,14.64-1,29.3-3,43.84.71,3.33,2.9,2.36,4.64-1.37,5.62,4.89.51,4.56-6.45,9.09-6.72,11.66-.3,23.52-3.69,34.74,2.33.86,5.94-3.76,4.45-6.57,4.4-5-.09-10.12,1.19-13,0,6.46-.18,14.77.5,23.41-1.41,5.84-1.29,13.85-4.23,16.93,5.39Z" style="fill:#6b4d5c"/><path d="M676.38,687.39c-.26,1.66-.52,3.33-.79,5-.71,0-1.41-.08-2.11-.1-2.24-3.33-.41-8.3-4.42-10.93-2.14-4-2.13-8.3-1.86-12.65a38.81,38.81,0,0,1,.79-9c4.08-22.21-.21-44.62,1.7-66.88-1-5.55,2.43-10.41,2.49-15.8.51-4.44-1.15-9.09,1.23-13.37l2.16-2.48c.34,2.44.67,4.9,1,7.36,4.52,4.82,2.74,10.87,3.22,16.48.16,5.3-.59,10.67,1,15.89a17.63,17.63,0,0,1,.22,5.66c-.47,3.52-1.16,7-.8,10.63a25.71,25.71,0,0,1,1,12.25c-1.84,5.55-2.33,11,.88,16.34a10,10,0,0,1,.24,3.69,29.31,29.31,0,0,1-1.88,5.53C677.7,665.65,683.14,677.3,676.38,687.39Z" style="fill:#45211a"/><path d="M671.21,682.11c3.2,2.84,2,6.67,2.27,10.16l-2.75,2.62c-.06-3.46-.12-6.91-.19-10.37a1.65,1.65,0,0,1,.46-2.29A1.13,1.13,0,0,1,671.21,682.11Z" style="fill:#2f050b"/><path d="M400.69,700V695c11.9,0,23.79,0,35.68-.15,3.15,0,7.73,1.16,5.36-5,7.54-5.34,16.43-4.4,24.52-3.6,15.78,1.57,31.43.12,47.14,0,8.6,1.35,9.16,3.4,3.06,11.26-.72,5-4.1,2.64-6.83,2.63Q455.17,700,400.69,700Z" style="fill:#6b4d5a"/><path d="M516.47,697.57c1.37-4,5.36-8.42-2-10.82-.91-.28-1.28-.68-1.13-1.21s.37-.89.62-.89c1.63-2.47.92-5.11.55-7.73,3.66-2.7,5.45-.39,7,2.61l-.06,18.13Z" style="fill:#3f1431"/><path d="M514,684.65c.18.7.35,1.4.5,2.1-14.46,6.9-29.93,1.43-44.86,3.55-9.1,1.29-18.59-.17-27.9-.4-13,0-26,0-39-.1-4.05,0-8.78,1-10-4.92,16.33-3.62,32.81-2.7,49.36-2C466.08,683.82,490.08,684.11,514,684.65Z" style="fill:#806467"/><path d="M490.77,648.56c2.44-4-.85-9.06,2.58-12.82,4.49-9.78,12.62-4.2,19.35-4.58,1.06,5.65,7.76,13.38,3.78,20-5,.72-2,4.7-5.27,5.08C500.75,657.43,497.37,651.7,490.77,648.56Z" style="fill:#e7dab9"/><path d="M516,650.67c-1.08-5.89,2.29-7.59.51-17.53-1-5.69-3.73-9.66-3.81-14.71-.06-4-.22-8,.73-11.92.7-2.2,1.76-4.09,4.06-5a4.53,4.53,0,0,1,3.71,2.43c3.39,21.35,1.18,42.8,1.26,64.21-1.13,4-2,8.29-7.92,6.32C515,666.55,517.41,658.49,516,650.67Z" style="fill:#583630"/><path d="M514.51,674.49c3.2-.39,4.52-2.44,4.76-5.43,1-1.35,1.46-3.16,3.48-3.43l1.71.4a7.28,7.28,0,0,1,2,2.89c.63,3.09.51,6-2.4,8l-2.47,2.62-7-2.61A2.27,2.27,0,0,1,514.51,674.49Z" style="fill:#411a19"/><path d="M390.43,604.82l-.09-15.42c3.24-1.83,6.42-.79,9.62.15,6.11,2.87,13.76-.71,19.29,4.58a4.71,4.71,0,0,1-.78,5.71c-6.25-.1-12.76.87-18.66-.6C393.75,597.72,393.17,602.43,390.43,604.82Z" style="fill:#d0c1ac"/><path d="M397.94,592.11l-7.6-2.68c-.24-.89-.47-1.79-.71-2.68q1.61-2.65,3.23-5.3c6.77-.7,12.08-5,18.16-7.41.22,3.58-1,7.52,2.51,10.3l.87,1.55a5,5,0,0,1-2,2.76C407.63,590,403.15,592.57,397.94,592.11Z" style="fill:#7a5e63"/><path d="M706.87,581.57c.12,2.17.71,4.09,2.72,5.29,2.09,3.23.56,5.38-2.13,7.2-7.71,2.26-15.32,2.69-22.65-1.34A14.64,14.64,0,0,1,681.9,590c-2.6-4.34-5.37-8.68-2.43-14a10.15,10.15,0,0,1,4.08-3.2c4.26-3.14,3.8-13.12,13-9.07.12,5.78-.53,11.71.57,17.3,1,4.79,4,8.27,7.18.73Q705.5,579.8,706.87,581.57Z" style="fill:#796160"/><path d="M696.59,563.69c-1.79,3.23-11.19,1.71-5.83,9.57,1.07,1.58.56,4.66-2.16,4.46-1.61-.12-3-2.47-4.57-3.82q-3.71-3.89,0-7.75c3.68-1.71-.07-9.31,7.73-8.59C697.08,558.05,696.56,560.44,696.59,563.69Z" style="fill:#816a68"/><path d="M678.62,566.22q.06-7.71.13-15.38c2.91-1.64,5-1.62,5,2.5l-.06,7.81c-1.82,1.5-.84,4.12-2.3,5.76A2.41,2.41,0,0,1,678.62,566.22Z" style="fill:#856964"/><path d="M797,581.54l7.59,2.92a3.42,3.42,0,0,1,.34,3.86c-3.75,9-11.77,8.55-19.49,8.79-8.54-.61-17.21,1.38-25.65-1.33l-1.37-1.67c1.85-9.85,3.75-19.69,10.24-27.84,2.65,5.87-.74,10.7-2.73,15.78-.9,2.3-2.63,4.64.36,6.74,2.08,1.46,29.91-1.49,31.3-3.6C798.08,584.42,797.26,582.78,797,581.54Z" style="fill:#7b6460"/><path d="M529.39,522.56c-2.44-3.41-2.38-6.9-.34-10.46-1.31-3.43-2.63-6.88,2.51-8.38,1,3.65-.72,8,2.86,10.95,0,1.7,0,3.41,0,5.11.4,2.56.24,5-1.56,7.09C527.25,529,527.72,526.23,529.39,522.56Z" style="fill:#edd6c7"/><path d="M531.56,503.72c-.84,2.79-1.68,5.59-2.51,8.38l-4.22-2.29q2.13-8.19,4.25-16.4l2,5.77C531.25,500.69,531.4,502.2,531.56,503.72Z" style="fill:#200b05"/><path d="M565.43,522.56c7.1-4,14.84-2.72,22.4-2.56,6.48.14,49.6,7.64,52.17,12.78,3,6,.47,16.12-5.14,15.44-5-.6-67.2-.91-72.06,0-6.1,0-12.53-6.69-18-5.14-6.89,1-9.64,2.16-14.25-7-.6-2.66-.34-5,2.17-6.68,4.61-1.84,9.94,4.67,14.19-1.24a24,24,0,0,1,3.69-3.64,10.33,10.33,0,0,1,3.15-1.48C557.62,522.47,561.64,525.5,565.43,522.56Z" style="fill:#b4a186"/><path d="M552.55,525.11l-2.66,5c-3.43,3.13-7,1.44-10.55.32-3.08-.86-5.87-2.12-7.28-5.29l2.31-5.33,2.68.15C541.51,523.8,550.42,514.31,552.55,525.11Z" style="fill:#c9b99b"/><path d="M552.55,525.11c-3.31-7.26-12.34,2.55-15.49-5.19,5.94-1.5,11.83-3.41,18.11-2.47,2.61,3.75-.09,5.67-2.63,7.65Z" style="fill:#d3c5a5"/><path d="M552.54,525.11c.87-2.55,1.75-5.11,2.63-7.66,2.83,2.89,5.63,5.84,10.26,5.11C561.7,526.3,556.88,524.49,552.54,525.11Z" style="fill:#c9b99b"/><path d="M665.72,548.25v7.69c-2.41,3,3.45,11.38-6.24,9.8-7.13-6.49-14.67.74-22-.64a7.8,7.8,0,0,1-3.34-1.09,13.36,13.36,0,0,1-3.2-8c.21-2.52,1.26-4.37,4-4.84l7.63-5.6C650.65,543.67,659.36,535.81,665.72,548.25Z" style="fill:#8b6e6e"/><path d="M665.72,548.25c-7-7.24-15.6-.07-23.1-2.68,10.46-14.86,16.52-15.46,25.35-2.74C668.15,545,667.73,547,665.72,548.25Z" style="fill:#b69585"/><path d="M629.08,556.49c-1.37-5.32,3-7.34,5.86-10.23l.09,4.91-2.77,4.7A2.55,2.55,0,0,1,629.08,556.49Z" style="fill:#b69585"/><path d="M660.58,563.67c5.49,0,.6-7,5.16-7.73,4,6.89,2,14.52,2.74,21.82,0,.3.39.56.6.84l2-2.28c1.07-.9,1.74-.71,1.94.73l-.19,15.29a7,7,0,0,1-3.33,1.51,12.67,12.67,0,0,1-3.68-.39A82.71,82.71,0,0,0,633.26,595c-5.33.56-78.36,2.43-83.35-.47-5.42-8.64-2.85-29,0-36,1.22-3.4,74.74,6.44,76.15,3.12,3.7-2.71,5.8,1.6,8.78,2h0c3.94,3.66,8,.83,12.06.32C651.45,563.4,656,560.84,660.58,563.67Z" style="fill:#7f6066"/><path d="M673.08,577.05a7.45,7.45,0,0,0-1.94-.73q.09-6.36.17-12.69l2.13.06Z" style="fill:#53342e"/><path d="M683.75,563.66c.28,3.27,1.15,9.8,0,12.87-3,7.92,1.44,18-2.57,18-2.57,0-2.67-5.24-4.63-8.63V568.57l2.07-2.35C679.32,566.29,683.08,563.53,683.75,563.66Z" style="fill:#a88888"/><path d="M498.32,542.85a13,13,0,0,1,.66-2.31l17.51,5.09a5.39,5.39,0,0,1,1.49,3.26,7.6,7.6,0,0,1-1.23,3.46c-3.92,4.8-8.22,5.23-12.92,1.13C500.84,550.54,496.33,548.37,498.32,542.85Z" style="fill:#9b827a"/><path d="M516.56,547.83a17.91,17.91,0,0,0-.07-2.2l.06-7.82,4.62-7.58L522,538c.59,3.81.73,7.52-2.32,10.53a2.21,2.21,0,0,1-3.07-.64Z" style="fill:#b39a8d"/><path d="M495.86,543.54c-.34,5-3.74,7.55-7.54,9.86-1.68-.07-1.94-1.58-2.66-2.62l-.83.11C486.92,546.11,491.36,544.75,495.86,543.54Z" style="fill:#9b827a"/><path d="M532.08,525.11l7.57,2.56c0,4.27-2.06,4.41-5.13,2.57-2,1.17-2.49,3.07-2.51,5.2,2.21,3.37.81,7.1,1.07,10.67a73.38,73.38,0,0,1-.37,9.25,11.68,11.68,0,0,1-2,5.29,4.25,4.25,0,0,1-3.44,1.41,6.6,6.6,0,0,1-4.26-3.68,9.88,9.88,0,0,1-.48-3.81c1.06-4.87.08-10.27,3.73-14.48,1.2-5.81-.78-12.21,3.18-17.53C530.38,523.31,528.47,527.11,532.08,525.11Z" style="fill:#c2ada0"/><path d="M524.66,556.11a5.13,5.13,0,0,0,.13,2.49,2.28,2.28,0,0,1-.74,3c-3.7.25-5.12-2.34-6.43-5.1-1.26-3,.93-5.52,1.26-8.3-.42-3.86.35-7.34,3.13-10.21.84,1,1.67,2,2.51,3.08A27.84,27.84,0,0,1,524.66,556.11Z" style="fill:#3c1e16"/><path d="M524.66,556.11q-.07-7.51-.14-15a13.16,13.16,0,0,1,1.69-1C526.84,545.55,527.79,551,524.66,556.11Z" style="fill:#826e68"/><path d="M804.69,671.74c-.05,1.71-.11,3.42-.16,5.13-5.54,4.4-12.4,3.06-18.51,3.39-32.1,1.73-64.23-1.28-96.35-.1-6.23.23-8.74-2.35-7.84-8.44,5.57-12.91,17-8.36,26.58-8.59,4.57-.11,8.91,2.62,13.62,2.78,22,.51,44-1.35,66-.62C794.39,665.5,801.08,664.69,804.69,671.74Z" style="fill:#a89080"/><path d="M684.08,671.26c.59,2-2.64,5.7,3.44,5.09,34.78-3.44,69.65,3.88,104.49-.62,4.07-.52,8.37.72,12.57,1.14,0,.86.09,1.73.13,2.59-1.16,2.08-2.45,4-4.7,5.12-8.33,2.57-16.91,1.34-25.34,1.21-26.8-.42-53.56.93-80.33,1.49-5.18.11-10.28.41-14-4.14-3.22-10.53-1.29-21.28-1.39-31.94.7-.93,1.4-1.85,2.09-2.78,3,.66,4.48,2.78,5.45,5.45a20.38,20.38,0,0,1,.63,8A91.72,91.72,0,0,1,684.08,671.26Z" style="fill:#967d77"/><path d="M804.69,671.74c-23.86-5.2-47.88-2.38-71.84-1.12-3.77.2-7.37,2.16-10.51-1.39a2.09,2.09,0,0,1-.8-1.93c.11-.72-4.52-.7-4.33-.7,3.86-1.32.9-6.16,2.57-10.3.9-1,13.23,1,14.48.49a14,14,0,0,1,8.34-.15c15.22,2.09,30.51.48,45.76.93,6,.17,12.08-.4,15.86,5.71.3,1.37.59,2.73.89,4.1Z" style="fill:#bfad92"/><path d="M802,682l2.67-2.5c-.55,6,1.82,12.49-2.42,18-10-5.38-20.7-1.5-31-2.52-4.94-.49-10-.08-17.92-.08,11-5.21,20.54.62,28.32-5a5.79,5.79,0,0,1,4.7-2.08c3.88.22,7.95,2.15,11.4-1.31C799.13,685,800.65,683.56,802,682Z" style="fill:#5c3c46"/><path d="M740.37,658.89l-7.39-.15c-4.17,1.59-8.14,3.84-12.81,3.71a204.85,204.85,0,0,1-36-1.2c0-2.57,0-5.15.07-7.73.36-4,.85-8.07,3.06-11.65,2.18-3.85,11.52-22.62,14.52-21.59,11,3.87,9.48,0,20.58,2.57,8,3.3,33.06,1.61,36,0,1.73-1.65,13.06-2.34,15.44-2.57,12.14-1.17,17.94.22,28.35,2.7,5.23,1.25,2.14,8.43,2.47,12.79-3.48,6,1.29,13.4-3.06,19.31-8.72,4.81-18.17,1.77-27.26,2.45C763,658.38,751.6,656.22,740.37,658.89Z" style="fill:#e3d7b3"/><path d="M740.37,658.89c1.34-6.82,6.82-5.06,11.13-5.1,16.87-.14,33.74,0,50.6,0,1.45,1.2,1.22,3.16,2.07,4.63l.06,4.91c-16.33-3.9-32.92-.82-49.34-1.89C750,661.11,744.61,663.11,740.37,658.89Z" style="fill:#dacca9"/><path d="M758.29,599.6v-4.86l28.45-.06a3.37,3.37,0,0,1,.24,4.76,2.72,2.72,0,0,1-.24.24Z" style="fill:#cebaa0"/><path d="M786.72,599.68v-5c6.57-.89,13.12-1.88,17.7-7.5l.69,6.76C801.13,602.73,793.08,598.5,786.72,599.68Z" style="fill:#cdc1af"/><path d="M804.17,658.38l-2.09-4.63c.93-6-2.16-12.53,2.54-18Q804.43,647.11,804.17,658.38Z" style="fill:#efe2bf"/><path d="M616.81,707.81c-9.92,5.24-20.6,1.29-30.85,2.53C595.87,705,606.56,709,616.81,707.81Z" style="fill:#482136"/><path d="M524,676.91q.27-5.25.53-10.49c5.08-4,11.15-4.23,17.14-4.29,36.83-.36,73.67-.25,110.51-.06,7,0,13.8.69,18.46,7q.29,6.54.56,13.09a11.63,11.63,0,0,0-.67,2.41c-2.53,2.09-2.43,5.92-8.15,5.81-41.68-.84-83.38-.56-125.07-1.23-4.36-.08-7.13,1.59-10.46,3.11Z" style="fill:#977f78"/><path d="M786.65,689.89H742.87c-.82.94-1.64,1-2.46,0-16.91.28-33.89-1.54-50.69,1.84-4.06.82-7.79,1-8.54-4.51-1.55-1.88-1.34-3.65.32-5.33,9.72,3.94,20.19,3.72,29.91,2.36,30.18-4.23,60.42-.92,90.58-2.29,0,2.58,0,5.15,0,7.73C796.94,691.86,791.81,691.59,786.65,689.89Z" style="fill:#806367"/><path d="M681.5,681.89c-.11,1.78-.22,3.55-.32,5.33l-4.8.17c.75-12.07-2.91-24.44,2.5-36.19C683.26,661.11,680.32,671.68,681.5,681.89Z" style="fill:#5e3b3a"/><path d="M740.41,689.89q1.23-.06,2.46,0c-1,11.44-8.65,1.88-12.47,4.44C733,690.83,738,693.69,740.41,689.89Z" style="fill:#5b3d47"/><path d="M670.65,669a66.3,66.3,0,0,0-20.1-2.56c-42,.11-84,0-126-.05l-.46.23c-2.91-3.27-2.47-7.18-2.14-11.07,2.49-4.53,2.35-11.53,10.25-11.07,13.82,2.68,26-1.56,37.57-8.76,16.42-2,32.92-.82,49.35-1.22l3.83-.09c7.37-2.15,14.92-3.83,22.55-2.34,9.68,1.9,17.51-3.79,26.29-5.5.27,11.8,1.28,23.59-.55,35.34C671.08,664.3,670.84,666.67,670.65,669Z" style="fill:#e2d5b1"/><path d="M562.8,594.54c1.49-3.14,50.76,1.29,54,0,15.71-1.9,31.48,1.08,47.22,2.27,1.93.15,3.33.72,3.06-2a4.41,4.41,0,0,1,1.23-2.75l4.51.32c-.42,23.2,2.49,46.48-1.63,69.6-2.44-12,3.25-24.73-2.91-36.48-12,3-24.25.92-36.37,1.34-3.34-.68-6.5-2.2-10-2.29a63.67,63.67,0,0,0-6.61-.76c-1.75-.58-56.65.58-57.69-.9" style="fill:#beac93"/><path d="M678.61,617.7c.35-3.49,0-5.14,0-10.28a7.93,7.93,0,0,1,6.55-8.06,6.35,6.35,0,0,1,3.85,4.09c.93,6.08,2.37,12.24-3.07,17.17C682.18,621.87,681.42,619.66,678.61,617.7Z" style="fill:#bba991"/><path d="M688.92,643.42a15.5,15.5,0,0,1-4.74,10.1l-3.21-5.1a7.07,7.07,0,0,0,.25-2.37c-.07-.59-.14-1.18-.22-1.77-.21-3.22.65-6,3.29-8.07C692.58,634.28,690.41,639.11,688.92,643.42Z" style="fill:#f4e1c2"/><path d="M678.61,620.28c1.51-2.2,3.4-2.72,5.24-.18.1.56.2,1.13.31,1.69a108.94,108.94,0,0,1,1.06,12.1,5,5,0,0,1-2,2.87c-1.88.79-.44,2.82-2,1.53-.76-1.83-3.63-6-2.57-7.72C679.82,626.05,676.08,624,678.61,620.28Z" style="fill:#c2ad97"/><path d="M678.27,602.31c.22-1.72.43-3.45.65-5.17,1.74-.9,3.08-.16,4.3,1.07l.6,1.52c0,3.74-.27,7.26-5.17,7.69Z" style="fill:#dac6a7"/><path d="M453.08,693h11.6v1.28h-12Z" style="fill:#5b3c46"/><path d="M521.75,666.39l-2.48,2.72q-.36-33.66-.74-67.32c-1.17-9.22-6.68-18.44,0-27.66,4.76-1.17,5.24,2.54,6.35,5.55.61,22.68,1.29,45.37-.44,68C522.64,653.77,523.67,660.3,521.75,666.39Z" style="fill:#3f1a13"/><path d="M519.68,574.21q-.57,13.77-1.15,27.53a17,17,0,0,0-1.42,1c-1.06-3.06.15-7-3.5-9.08a8.85,8.85,0,0,1-2.08-2.88,15,15,0,0,1-.73-3.5c-.25-4.18.85-8.16,1.81-12.15a73.25,73.25,0,0,0,.1-11.94A39.39,39.39,0,0,1,512,558a8.85,8.85,0,0,1,4.47-7.21c0-1,0-2,.08-2.95a20.42,20.42,0,0,0,2.32.39c3.21,2.27-1.4,5.51,1,7.89C520.51,562.16,525.08,568.23,519.68,574.21Z" style="fill:#91746e"/><path d="M521.75,666.39q.21-9.15.41-18.32a2.72,2.72,0,0,1,3,.86,4.23,4.23,0,0,1-.66,4.77q-.22,6.48-.44,13C523.29,666.63,522.52,666.53,521.75,666.39Z" style="fill:#583630"/><path d="M706.93,592a15.88,15.88,0,0,0,0,1.69c-6.88,7.33-14.71,5-22.58,2.21-2.1-2-2.3-4.15-.65-6.5h0C691,594.92,699.08,591.21,706.93,592Z" style="fill:#816a68"/><path d="M529.73,545.81q1.14-5.19,2.26-10.37c5.19,6.24,12,1,17.88,2.56a3.9,3.9,0,0,1,2.43,2.53l4.86,5.36C547.29,555.31,539.18,555.29,529.73,545.81Z" style="fill:#9f897c"/><path d="M534.5,530.24l5.13-2.57,10.26,2.44C544.84,538.74,539.68,534.75,534.5,530.24Z" style="fill:#b6a28d"/><path d="M552.3,540.53,549.87,538c3.94-3.37,7.49-7.43,13.25-7.64C561.26,535.61,556.36,537.62,552.3,540.53Z" style="fill:#b6a28d"/><path d="M529.73,545.81c9.13,5,18.28,3.92,27.43.08.92.65,79.35-.89,80.27-.24,1.74,1.55,21.17,18.46,20.59,20.59-.84,2-98.91-9.37-100.77-8.33-7.74,2.94-15.86,1.51-23.83,2-2.21-.5-2.92-2.55-4.17-4Z" style="fill:#8f7872"/><path d="M660.58,563.67c-5.68,3.8-12.92,2.11-18.94,6.07-4.42,2.91-6.12-2.14-6.77-6.1,6.12-1.57,12.22-3.26,18.37-4.68C657.08,558.11,660,559.19,660.58,563.67Z" style="fill:#7c6769"/><path d="M634.87,563.65c-3.72,2.68-5.37-.76-7.57-2.57-.84-.38-1.16-.82-1-1.34s.41-.84.66-.84l2-2.41,3.18-.62C635.08,557.78,634.82,560.77,634.87,563.65Z" style="fill:#7c6769"/><path d="M616.73,593.69c.08-.65.18-1.3.32-1.94l17.82.2a101.75,101.75,0,0,1,33.13-.34l.35.41c-.18.66-.34,1.31-.5,2C650.78,598.78,633.73,599.63,616.73,593.69Z" style="fill:#8c7267"/><path d="M668,591.61l-33.13.34C645.88,588.67,656.91,586.53,668,591.61Z" style="fill:#7a5e5b"/><path d="M516.48,550.79c-.85,2.55-1.69,5.1-2.54,7.65.89,8.45-2.19,13-11.32,11.16-7.13-1.47-18.75,6-19.16-9.33,1-2,.84-5.26,4.59-4.44,6.28-.81,13.48,1.69,18.12-5C509.61,556.64,513.08,550.64,516.48,550.79Z" style="fill:#836d6d"/><path d="M529.25,555.87l2.75,2.54c7.72,3.51,16.3-.76,24.06,2.66a10,10,0,0,1,2,3.54c1.29,7.65.29,15.46,1.72,23.11a9.52,9.52,0,0,1-1.5,4.27c-10.27,6-20.83,4.68-31.47,1.2-3.59-3.93-2.29-8.73-2.39-13.29,2-6.35-.16-13.7,4.71-19.35Z" style="fill:#7f6067"/><path d="M527.16,579q-.07,6.48-.14,13a2.22,2.22,0,0,1-.69,3.07,2.3,2.3,0,0,1-.5.24,2.53,2.53,0,0,1-2.79-2.22.61.61,0,0,0,0-.14c-.19-5,0-9.91-.11-14.87-.27-5.7-3.12-11.54.88-17,.3-.8.64-1.59,1-2.37l2.3,3A34.9,34.9,0,0,1,527.16,579Z" style="fill:#cdadac"/><path d="M527.16,579q0-8.7-.08-17.38a17.76,17.76,0,0,0,2-1C528.73,566.72,531.23,573.19,527.16,579Z" style="fill:#826e68"/><path d="M523.8,561v17.76c-.23,1.18-.83,1.52-1.9.86l-2.22-5.4.18-18.09Z" style="fill:#431d20"/><path d="M684.08,661.25c12.63-5.13,25.74-1.41,38.61-2.16a3.81,3.81,0,0,1,.66,3c-.24,1.57-1,3-1.09,4.63v2.52c-8.77,0-17.1-3.47-26.06-2.8-4.9.36-8.94,1.24-12.26,4.83C684.08,667.92,684.08,664.59,684.08,661.25Z" style="fill:#cbb7a0"/><path d="M786.65,689.89l15.39-.2C797,693.71,791.83,693.37,786.65,689.89Z" style="fill:#6b4d5c"/><path d="M696.35,633l.39,2.69-7.82,7.76c-.34-3.06,1.07-7.85-5.09-5.13a1.32,1.32,0,0,1-.75-1.29c.07-.52.19-.78.34-.78.12-1.2.23-2.39.34-3.59-1.54-1.65-1.36-3.39-.27-5.19C689.3,625.75,693.55,627.68,696.35,633Z" style="fill:#decfae"/><path d="M629.72,622.86c12.78,2.13,26.07-3.29,38.6,2.6-.22,6.62-3,9.51-10.25,10.11-11.15.92-100,2.26-110.71,7.87-1.92-3.16-3.32-19.61-2.57-23.16C545.87,617.11,627,624,629.72,622.86Z" style="fill:#daccab"/><path d="M568,638.55c-11.57,10.67-25.59,13.57-36,7.46-3.87-2.18-5.84-5.11-3.78-9.62,9.07-5,19-2.58,28.53-3.09a40.2,40.2,0,0,1,5.31,1.38C564.41,635.29,566.68,636.11,568,638.55Z" style="fill:#dddbb2"/><path d="M529.32,635.75c-.33,3.72.85,7.06,2.6,10.26-5.88-.71-1.11,8.81-7.4,7.69-.28-1.64-.56-3.27-.85-4.91-1.57-6.94-.37-14-.71-20.93a3.24,3.24,0,0,1,2-3.18c2.4,0,3.43,1.6,4.25,3.48A12.38,12.38,0,0,1,529.32,635.75Z" style="fill:#f1e0bb"/><path d="M616.73,593.69c17,1.63,34.08,1.08,51.12.3,3.57,2.79,3.42,6.36,2.62,9.08-17.67-6.92-36-1.61-53.78-3.55-1.4-1.61-1.38-3.17.18-4.67Z" style="fill:#d1bba7"/><path d="M688.86,602.2H686.4l-2.59-2.43-.18-.11c-1.26-1.79-1.51-3.54.19-5.21l23.15-.74-.09,1.1c1,2.73-.22,4.68-2.23,6.36C699.48,602.72,694.58,608.59,688.86,602.2Z" style="fill:#cfbaa6"/><path d="M683.42,636.22a2.16,2.16,0,0,0,.41,2.07c-1.15,2.53.64,6-2.54,7.88q-1.14-5.71-2.3-11.42C680.47,635.23,681.94,635.73,683.42,636.22Z" style="fill:#53342e"/><path d="M684,625.25c.68.63.89,1.25.63,1.85s-.49.88-.73.88l-.09,4.66" style="fill:#edd3c7"/><path d="M683.82,594.41c-.06,1.73-.12,3.47-.19,5.21l-4.71-2.51c-.47-3.88-2.08-8.47,4.83-7.76C683.77,591.05,683.8,592.73,683.82,594.41Z" style="fill:#e1cbb4"/><path d="M524.53,625.51q-.42,11.64-.86,23.28a4.05,4.05,0,0,1-1.51-.72q-.12-34.23-.26-68.46c.62-.31,1.25-.6,1.9-.86q.47,7.89.92,15.82a15.89,15.89,0,0,1,2.39,4C527.64,607.66,530.23,617,524.53,625.51Z" style="fill:#91706e"/><path d="M515.89,576c-7.12-5-1.06-9.67.35-14.45Q516.09,568.74,515.89,576Z" style="fill:#5f3a3e"/><path d="M555,561.11c-8.08,2.65-16.28,6.23-23-2.7,8.19-4.24,17-1.87,25.53-2.4C558.82,558.77,557.4,560.18,555,561.11Z" style="fill:#85696c"/><path d="M557.67,589.44l5.2,4.58a7.55,7.55,0,0,1-3.53,3.12c-10.85.79-22,4.27-32.09-2.87a8.06,8.06,0,0,1-.23-2.34C537.21,590.73,547.81,594.66,557.67,589.44Z" style="fill:#826e68"/><path d="M560.38,586.64l-2.72.19c-5-7.26-1.53-15.47-2.56-23.17l4.46,7.63c2.63,1,3,3.24,3.12,5.66C562.85,580.4,561.38,583.46,560.38,586.64Z" style="fill:#85696c"/><path d="M527.25,594.27l32.85.54c2.75,6.17-1.87,7.66-6,8-8.26.69-16.65,2.52-24.89-.43a8.69,8.69,0,0,1-4.59-5.12c0-.9,0-1.8.07-2.69A21.81,21.81,0,0,0,527.25,594.27Z" style="fill:#d0c4a7"/><path d="M683.85,628c0-.91.07-1.82.1-2.73a13.74,13.74,0,0,1,15.08,0L696.36,633Z" style="fill:#d2c3a4"/><path d="M529.32,635.75c-2-1.26-2.44-3.2-2.39-5.36,4.14-7.54,11.36-6,18-6.15,4.55.14,9.27-.4,13.09,3,2,2.92,1.94,5.74-.42,8.44C548.2,635.92,538.77,640,529.32,635.75Z" style="fill:#e2ccad"/><path d="M544.82,628c-6,.19-12.26-.85-17.89,2.42-.07-1.63-.15-3.26-.22-4.89-1.57-1.75-1.23-3.64-.42-5.57,7-3.77,14-4.58,21.07-.22C550,623.53,548.18,626,544.82,628Z" style="fill:#cac09e"/><path d="M526.92,620.21l-.21,5.28h-2.18l.12-28.24,2.23,2.56C532,606.61,532.53,613.41,526.92,620.21Z" style="fill:#dfc6ae"/><path d="M565.75,597.55a15.26,15.26,0,0,1-.55,2.19c-4.23,6.25-.32,15.44-7.48,20.63-.08.76-.16,1.53-.26,2.29-2.22.77-3.39-.56-4.41-2.19-1.69-2.87-.79-6.43-2.51-9.48-2.3,2.37-.41,5.62-2,8q-.59.68-1.2,1.35l-20.46-.14V599.82q12.2,0,24.37-.14c3.78,0,8,.63,8.85-4.88l2.77-.79,2.56.16a2.45,2.45,0,0,1,.81,2.19C566.08,597.16,566,597.55,565.75,597.55Z" style="fill:#bbad8f"/><path d="M555.08,620.26l2.38,2.4c0,1.76.07,3.51.1,5.26l-12.74.05,2.56-7.62v-.1C549.94,618.19,552.51,618.18,555.08,620.26Z" style="fill:#d6ba9f"/><path d="M555.08,620.26h-7.72c-.3-5.2-5.11-10.32-.37-15.59,1.51-1.68,3.94-2.84,5.6-1.21C557.51,608.27,554.08,614.65,555.08,620.26Z" style="fill:#c3a88d"/><path d="M387.84,702.6c-.24-6.93-9.8-47.76-8.56-54.88-3.78-12.16,6.89-21.81,8.86-28.8,1.38.14,2.69,42.48,3.6,43.53,1.61,2.25,2,4.87,2.34,7.52a125.36,125.36,0,0,1,0,13.57c-.36,3.93,1.12,7.57,1.91,11.32a23.87,23.87,0,0,1,0,8,7.58,7.58,0,0,1-3.29,5Z" style="fill:#2a0619"/></svg>