<svg id="圖層_1" data-name="圖層 1" xmlns="http://www.w3.org/2000/svg" viewBox="0 0 1200 1200"><title>roller base</title><path d="M681.47,600.8l7.17,1a2.57,2.57,0,0,0-.29,1.72c-.07.54-.13,1.09-.19,1.64-.84,2.66-1,5.48-1.85,8.15a6,6,0,0,1-3.12,3.9C679.44,612.06,681.26,606.35,681.47,600.8Z" style="fill:#53342e"/><path d="M400.81,560.72c.85-1,88.72,15.8,89.56,14.83.14,1.7-.05,4.76.48,4.89,5.25,1.32,11.74-.71,15.66.58,9.06,3,9.58-3.15,12.35-7.69l2.3,3.07c-1.09,4.79-2.65,9.58-.35,14.45-.77,4.51-.24,13-2.28,17.68-4.85,11.2-110.72-2.4-124.36-2.4C395.86,595.51,396.36,570.39,400.81,560.72Z" style="fill:#7c6166"/><path d="M395.31,609.43c6.88-2.9,95.14,0,102.93,0a13.67,13.67,0,0,0,7.72-2.57c9.77-6.57,18,0,15.23,15.4-.78,4.31-.14,8.75-.21,13.13-8.56,8.05-19.16,3.37-28.62,3.59-4.2.1-3,5.22-7,6.48-.83-.82-11.75,5.15-12.87,5.15-5.15,0-74.77-10-77.2-10.3" style="fill:#bfac90"/><path d="M521.4,676.34c2.89,11.67-11.91,5.94-16.75,6-31.42.12-62.84-.4-94.26-.72-5.11-.05-10.24-.31-14.91,2.35-.18-2.46-.35-4.93-.53-7.39a1.6,1.6,0,0,0,1.23-.67c.51-5.88-6.88-40.13-.87-40.7,10.41-1,30.8,5.32,41.74,7.24,14.29,2.51,29.43-.07,44-2.76,5-.93,32.71-6.55,37.8-4.48C526.53,637.36,521.4,663.47,521.4,676.34Z" style="fill:#dbd1ad"/><path d="M802.07,498.42a14.05,14.05,0,0,0,2,.56,9.42,9.42,0,0,1,3.75,3.68c1.13,2.77,2.61,5.42,3,8.45.06,5.59,0,11.17,0,16.76a16.66,16.66,0,0,1-.28,3.79,4.25,4.25,0,0,1-3.3,1.57c-4.06-1-6.36-4-8.44-7.32-4.62-6.64-3-15.47-7.79-22.1a14.16,14.16,0,0,1,1.28-9C798,489.42,798.59,497.86,802.07,498.42Z" style="fill:#4d0a16"/><path d="M802.07,498.42c-5.74,3.56-4.43-4.56-7.9-4.76-5,.75-5.3-3.39-5.92-6.38-1-5.09-4.16-8.18-8.37-10.59-3.28-1.4-5.72-3.87-8.23-6.27-3.58-3.78-9-5.5-11.72-10.25a4.67,4.67,0,0,1,.78-3.44,9,9,0,0,1,5.16-1.92c3.9-.09,7.33,1.43,10.75,3,4.72,2.17,8.23,5.45,9.58,10.66C792.27,478.07,799.22,487.16,802.07,498.42Z" style="fill:#44110a"/><path d="M794.16,503.94l7.67,20.63c-1.41,2.57.61,6.19-2.48,8.26a4.39,4.39,0,0,1-3.48-.52c-3.88-4.17-4.29-9.95-6.82-14.75-2.59-7.47-6.14-14.5-9.66-21.57a9.49,9.49,0,0,1,.24-5.7,5.18,5.18,0,0,1,6.49-2.88C791.33,491.69,792.12,498.11,794.16,503.94Z" style="fill:#2b0e0d"/><path d="M794.16,503.94q-3.9-7.69-7.78-15.4c-2.93-2.23-6.4-3.59-8.73-6.78-3.86-5.3-.81-7.18,3.68-8.68,9.39,3.68,9.21,13.31,12.84,20.58C794.17,497.08,794.16,500.51,794.16,503.94Z" style="fill:#3f061f"/><path d="M799.14,532.62c.25-2.9-.14-6,2.69-8L807,532c0,3.06-2.56,5.27-2.71,8.29-2.26,1.47-4.29,1.32-6.09-.77A5.85,5.85,0,0,1,799.14,532.62Z" style="fill:#2f0e08"/><path d="M760.76,460.19c5.42.67,9.06,4.3,12.82,7.74-1.86,4.89-7,3.16-10.3,5.11-25.69-3.55-51.87,1.7-77.41-4.32a36.69,36.69,0,0,0-7.62-.69c-8.61-.19-13.38,2.55-9.61,12.16a7.82,7.82,0,0,1-.08,5,5,5,0,0,1-5.1,2c-4.81-1.71-6.53-6-8.62-10.07a30.28,30.28,0,0,0-1.71-3.3c-3.77-3.18-8.3-5-13-4.6-26.8,2.43-53.56-2.46-80.33-.13a13.32,13.32,0,0,1-3.39.14c-2.37-.77-3.77.39-4.69,2.47-1.07,2-2.08,4-3.28,5.91-1.45,1.91-2.75,4.08-5.7,3.62C534.6,466.85,531.46,465.17,514,468c-12.63,2.07-25.07,3.69-38,1.51s-25.29,1.34-37.56,4.94c-4.4-.46-9.33.22-11.45-5.24-.76-6,2.94-8.39,7.95-9.29,4.57-.83,8.81-2.89,13.49-3.28,99.28-.59,198.54-.15,297.8-.23C751.4,456.44,756.65,456.16,760.76,460.19Z" style="fill:#3a061c"/><path d="M441.43,457.31q152,.15,303.88.31c5.12,0,10.24.36,15.35.55,0,.67.06,1.34.1,2l-316.58,0c-2.66,1.06-3-.21-2.45-2.43Z" style="fill:#3c0505"/><path d="M765.86,470.49l7.72-2.56c2.62,1.67,3.9,5.35,7.75,5.15-6.44,7.81,4.35,10,5,15.46-2.29.09-4.22.81-5.31,3-2.32,1.56-4.32.78-6.23-.82a22.7,22.7,0,0,1-3.74-5.56c-1-1.9-2-3.84-3.12-5.72C766.83,476.58,763.72,474.15,765.86,470.49Z" style="fill:#2e0618"/><path d="M799.65,542.57c.05,7.07,7.23,13.43,2.13,21a2.78,2.78,0,0,1,.09,1.8,3.57,3.57,0,0,1-3.09,1.55c-5.35-1.76-6.6-6.78-8.84-11-2.51-6.13,4.65-10.23,3.35-16.13a16.72,16.72,0,0,1,.52-3.59,6.7,6.7,0,0,1,3.26-4.31,5,5,0,0,1,2.07.73c.2,2.41.41,4.81.61,7.22.74.63,1,1.25.69,1.84S799.91,542.57,799.65,542.57Z" style="fill:#a38c7f"/><path d="M782,495.8c5,6.05,7.77,13.19,9.85,20.65a5.71,5.71,0,0,1,.13,5.91c-8.09,3.15-12.86-5.24-20.15-5.68-20-1.21-40.08-2.2-60-.07a132.34,132.34,0,0,1-29.17.06,12.1,12.1,0,0,1-7.5-6.1,7.05,7.05,0,0,1-.36-3.61c5.13-4.14-2.77-10.12,2-14.36,15.62-2.31,31.36-.32,47-.79,14-.41,28.18.44,42.26.3C771.94,492.06,777.07,493,782,495.8Z" style="fill:#eceacf"/><path d="M791.27,521.92c.19-1.83.39-3.65.58-5.47,3.26,4.63,4.29,10,5.22,15.43-.22,1.8-.45,3.59-.67,5.38-3.13,2-6.69,2.79-10.3,3.53a36,36,0,0,1-4,.27c-30.26.31-60.51-.26-90.73.12-2.71.21-5.07,1.68-7.69,2.24-4-.07-5.83-2.84-7.35-6a13.61,13.61,0,0,1-.84-4.09c.14-4.64,1.75-8.36,6.41-10.14,33.63-1,67.27-.25,100.9-.14C785.74,523.06,788.67,524.11,791.27,521.92Z" style="fill:#d5c8a7"/><path d="M782,495.8c-33.41,0-66.83,1.06-100.21-1-2.09-.13-4.32-1-4.84,2.16-1.08,2.4-2.91,3.2-5.43,2.53-3.79-2.74-3.76-6.26-2-10.12,4.56-5.11,10.85-4.37,16.64-4.45,24.66-.35,49.33-.11,74-.17a31.61,31.61,0,0,1,15.85,4l5.12,2.82Z" style="fill:#d4beae"/><path d="M544.12,480.5q1.47-2.53,3-5.07c5.61-4.21,12.22-3,18.44-3,28.37-.27,56.77-2.1,85.11,1.05,2.54.29,5.1.34,6.83,2.65l6.17,9.9a4.51,4.51,0,0,1-1.1,4.19A13.3,13.3,0,0,1,652.06,494c-30.12-2.07-60.15,2.63-90.27,1-6.4-.35-12.74-.46-18.43-3.94a6.21,6.21,0,0,1-3-5.54C540.64,483.06,542.18,481.63,544.12,480.5Z" style="fill:#75555c"/><path d="M544.12,480.5l-1.85,2.82c-2.28,2.8-2.48,8.68-8.6,5.76A11.91,11.91,0,0,1,531,486c-2.84-6.38-8.55-6.27-14.19-6.18-24.36.39-48.74-1-73.09.85-3,.23-6,.38-8.79-1.06-3.42-3.14-.77-4.8,1.59-6.53,13.32-8.63,28.51-9.84,43.09-7.16,12.32,2.27,23.6.26,35-2.45,8.13-1.93,16.07.11,23.76.4C546.33,464.16,540.26,475.33,544.12,480.5Z" style="fill:#3b152a"/><path d="M765.86,470.49l5.17,7.7c-2.07,1.89-4.51,1.87-7.16,1.72-26.43-1.49-52.87.85-79.3,0-4.51-.15-8.5.5-11.2,4.55a9.7,9.7,0,0,1-3.65,2.41l-2-.85c-.81-6.44-9.84-11.71-4.67-18.41,4.92-6.39,14.07-4.58,20.34-3C710.61,471.43,738.68,464.56,765.86,470.49Z" style="fill:#38142d"/><path d="M657.46,476.1c-25.83-.11-51.66-.11-77.49-.38-11-.11-22,2.36-32.89-.29l2.61-5a13.34,13.34,0,0,1,5.18-2.57h2.54c27.64-1,55.27,1.4,82.92,0,6-.3,12.83-.59,17.44,5.14C657.67,474.06,657.56,475.08,657.46,476.1Z" style="fill:#421c32"/><path d="M657.77,473c-6.28-2.91-12.73-3.13-19.68-3-24.58.62-49.19.31-73.79.36-2.62,0-5.07-.42-6.89-2.55,5-6.94,12.41-2.86,18.21-3.06,20.72-.7,41.42,2.4,62.28.76C645,465,653.34,464.8,657.77,473Z" style="fill:#3b152a"/><path d="M436.53,473.07c-.85,1.78-1.69,3.56-2.54,5.33,1.67,5.93-4.1,8.74-5.53,13.37-1,2-2,4-3,6-3.38,5.3-2.92,12.51-8.31,16.83a5.7,5.7,0,0,1-3.45.47c-2.52-1.27-2.87-3.62-3-6.06-.06-14.27,12.19-23.24,15.49-36.05l2.52-2.55Z" style="fill:#2d0d19"/><path d="M662.57,488.83c.35-.94.71-1.88,1.06-2.83l4.06,0,.44-.1c1.5,1.52,1.33,3.41,1.23,5.29-.16,2.46.35,5.3-3.33,5.7C662.68,495.13,661.56,492.44,662.57,488.83Z" style="fill:#240605"/><path d="M554.87,467.89c-1.18,1.95-3.06,2.5-5.18,2.57,1.92-1.79-.15-5.67,3.33-6.41C553.35,464,554.24,466.54,554.87,467.89Z" style="fill:#3b152a"/><path d="M670.23,485.68c1-4.17-.8-10.27,6.65-10,31.37,1.23,62.9-3.05,94.15,2.49l2.66,5.18c-.64.57-1.3,1.48-2,1.49C737.87,485.39,704.08,489.28,670.23,485.68Z" style="fill:#7a5e64"/><path d="M670.23,485.68l103.46-2.31c.75,1.79,1.51,3.58,2.26,5.36q-50.72.24-101.43.42a4.31,4.31,0,0,0-4.15,2.14c-1,.94-1.68.75-2-.57-.06-1.61-.12-3.23-.19-4.84C668.84,485.84,669.54,485.77,670.23,485.68Z" style="fill:#88665d"/><path d="M403,746.28l-7.3-.8-3-2.52c0-.78,0-1.56,0-2.33a9.09,9.09,0,0,1,7.31-2.37c3.33.28,6.61.94,9.95,1.2a51.88,51.88,0,0,0,10.71-.58c18.81.09,37.61.84,56.43.55q10.75.11,21.5,0c13.77.81,27.53-1.85,41.3-.08,40.63.21,81.27-.38,121.9.06,6.53,0,13-1.68,19.6-.27,34.75-.82,69.5-1.24,104.24.13,3.72.35,7.52-.1,11.23.66a11,11,0,0,1,4,1.67,2.75,2.75,0,0,1,.93,3.73l-2.57.92q-135.07-.21-270.17-.4C487.08,745.83,445.06,746.13,403,746.28Z" style="fill:#260306"/><path d="M392.73,738.13c0-4.23,2.26-4,5.1-2.61,2.43,1,3.8,2.44,2.59,5.21l-7.67-.1C392.74,739.8,392.73,739,392.73,738.13Z" style="fill:#2a0619"/><path d="M388.63,629.38C400.81,625,405,662.89,400.81,675.9c-.61.5-10.46,23.87-11.07,24.36-.61-.27-5-24-5.54-24.36C384.09,662.55,376.08,634,388.63,629.38Z" style="fill:#bfad92"/><path d="M786.4,557.94l5-2.77c5.29,1.61,4.42,8,8.32,10.7L794.37,572a2.16,2.16,0,0,1-1.16,2.91c-6.17,1.6-88.45-1.93-94.24-4.12-1.09-.67,3.19-11.75,2.57-12.86C702.86,550.31,777.68,557.55,786.4,557.94Z" style="fill:#988077"/><path d="M796.61,539.86c-3.35,1.75-6.76,3.71-7.67-2.38,2.45-1.48,4.93-1.86,7.47-.21C796.47,538.13,796.54,539,796.61,539.86Z" style="fill:#d4bcab"/><path d="M791.27,521.92c-2.2,5.76-7.2,5.11-11.88,5.14-31.45.26-62.91.54-94.36.6-1.15,0-2.31-2.25-3.47-3.45a4.94,4.94,0,0,1-2.59-2.9c-.61-2.82-.3-5.34,2.33-7.1A796.1,796.1,0,0,1,772.81,512C780.6,512.3,785,518.82,791.27,521.92Z" style="fill:#ecebcc"/><path d="M668.32,490.72l2,.57c1.07,2.5-.76,6.36,3.45,7.4,2.54,2.07,3.78,4.53,2.29,7.79a2.51,2.51,0,0,0,0,2.41c1.23,3.65.75,7.43.9,11.18.13,5.16,0,10.31.11,15.47.38,4.4,3.43,9.26-2.18,12.63-4.23-.17-4.78-3.88-6.4-6.59a29.47,29.47,0,0,1-2.7-10.72c.07-3.61-.78-7.12-1.25-10.69-.35-7-3.56-13.89-1.36-21.08a6.08,6.08,0,0,1,2.64-2.91Z" style="fill:#35211a"/><path d="M673.83,519.4c-.81-3.84.27-7.27,2.26-10.51l5.21,5.32c-.1,2.59-.19,5.18-.29,7.77C677.65,523.81,676,520.93,673.83,519.4Z" style="fill:#9a867b"/><path d="M676.11,506.48c-1.59-2.36-3.7-4.56-2.29-7.8l3.12-1.75c3.11,1.79,5,4.54,4.51,8C681.36,505.68,678,506,676.11,506.48Z" style="fill:#fcf8e7"/><path d="M786.51,537.44c-2.22,2.51-5.21,2.5-8.21,2.5h-84c-3,0-6,0-8.17-2.54Z" style="fill:#d4bcab"/><path d="M673.59,547.65c3.64-4,1.58-9.08,2.57-13.58a1.42,1.42,0,0,1,1.79,1.42,1.85,1.85,0,0,0,.51,1.88,46.6,46.6,0,0,1,3.65,17.77c-.72,5.73,1.85,12.52-5.2,16.22-6.63-3.48-3.81-10.64-6.18-15.79C670.48,552.5,670.84,549.64,673.59,547.65Z" style="fill:#3e2318"/><path d="M678.75,554.45q-.15-8.54-.29-17.08l5,5.09c.08.93.17,1.85.25,2.78,2.43,3.83,3.8,7.87,2.47,12.45a9,9,0,0,1-1.9,3.12,4.62,4.62,0,0,1-3.46.36C679.39,559.15,679.64,556.63,678.75,554.45Z" style="fill:#d4bcab"/><path d="M678,535.49a10.26,10.26,0,0,1-1.79-1.42c1.29-5.22-4.84-9.26-2.33-14.67,3.9-3.32,4.74,1.84,7.18,2.58.22.73.4,1.47.55,2.23C679,527.53,678.51,531.52,678,535.49Z" style="fill:#b69d91"/><path d="M665.85,496.18c-.22.85-.45,1.71-.67,2.57-3.35,2.21-7.19,2.47-11,2.74-32.78,2.3-65.57,2-98.37.59-6-.26-12.22-.29-15-7.27-.54-2.3-.45-4.42,1.72-5.93,40,4.43,80-.49,120.08-.05Z" style="fill:#e8e5ca"/><path d="M638.26,482.62H565.62c0-.38,0-.76,0-1.15h73.73Z" style="fill:#614244"/><path d="M542.49,488.88l-1.3,4.42c.85,4.16,1,8-4.26,9.39a5.4,5.4,0,0,1-3.69-1.37,10.14,10.14,0,0,1-2-5.71c.09-2.88.72-5.49,3.43-7.11,3.84.19,4.72-4,7.62-5.18C542.34,485.17,542.42,487,542.49,488.88Z" style="fill:#280604"/><path d="M425.94,490.72c.47-5.55,6-7.82,8.05-12.32,31.88-5.68,64.05-1.58,96.06-2.65,11-.36.47,7.82,3.67,10.79-3.13,5.8-8.85,6.44-14.33,6.37-27.93-.35-55.86-1-83.79.14C432.31,493.19,428.77,493.11,425.94,490.72Z" style="fill:#7e6366"/><path d="M425.94,490.72c29.64-4,59.43-.91,89.14-1.71,6.4-.17,12.65.17,18.64-2.47a3.63,3.63,0,0,0,.93,2q-.28,3.83-.55,7.63a12.71,12.71,0,0,1-4,2.31c-31.71,4.16-63.58,1.64-95.38,1.94-4.22,0-8.55-.53-11.46-4.36Z" style="fill:#e0c6b8"/><path d="M423.26,496c33.59-.26,67.19,1.38,100.76-.87,2.85-.2,5.78.86,8.67,1.33,1.11,8.72-2,15.8-8.38,21.6-12.74,1.55-25.08-2.45-37.7-3.23-19.37-1.21-37.87,3.73-56.87,4.35-4.23.14-8.38,1.37-12.44-.73-1.74-1.36-3-2.9-1.81-5.25C419.07,507.93,417.36,500.25,423.26,496Z" style="fill:#edebd0"/><path d="M415.49,513.22l2.93,3.61c13.4.2,26.77-.14,40.16-.84,17.9-.94,35.81-1.36,53.68.84,6.85.85,10.5,3.69,6.92,11.07-4.69,3.83-10.37,3.58-15.9,3.73-29.47.79-59-1.42-88.43,1.41-2.84.28-5-.63-6.16-3.38,1-5.59,1.52-11.31,4.65-16.3A14,14,0,0,0,415.49,513.22Z" style="fill:#e9e3c1"/><path d="M403.88,545.15c-.76-5,2.72-8.6,4.33-12.82,9.45,2.66,19,3.77,28.78,2a62.3,62.3,0,0,1,20.3.08,150.86,150.86,0,0,0,41.91,0c7.87-1,16.1-3.11,23.05,3.18a8.87,8.87,0,0,1,1.36,5.6c-2.41,12.66-13.55,9.25-21.55,11.7-4-.12-7.87-1-11.86-.85-18,0-36,0-53.94,0-4.09-.12-8.21-.26-10,4.64a9.25,9.25,0,0,1-2.41,2.5,6,6,0,0,1-3.41-.11c-2.35-1-4.15-3.81-6.67-3.57C403.93,558.36,404.08,551.71,403.88,545.15Z" style="fill:#c1aa91"/><path d="M521.39,540c-7.12-4.69-14.8-2.63-22.24-1.51-14.45,2.17-28.83,2.47-43.23-.17-6.81-1.25-13.61-1.68-20.24.68-9.14,3.24-17.71-1.51-26.59-1.86-.35,0-.59-3.11-.88-4.77l.48-2.67c36.61-5.31,73.45-1.29,110.16-2.6,1.26-1.56,2.24-3.51,4.71-3.33,2.23,1.83,6.4-.77,7.67,3.35,1.7,5.54,1,10.36-4.12,13.86A5.45,5.45,0,0,1,521.39,540Z" style="fill:#d7c9a9"/><path d="M403.88,545.15c3.07,2.87.32,13.55,10.91,6.79,4-2.55,86-2,88.6.88,0,.53,7.71,7.19,7.72,7.72-.43,2.15,1.34,16.31,0,18-2.36,1.91-95.68-4-100.17-5.26l-5.36-5.52c-1.66-2.4-4-4.38-4.6-7.43Q402.43,552.75,403.88,545.15Z" style="fill:#96827b"/><path d="M801.84,745.33c0-.7,0-1.39,0-2.08-2-2.47-1.09-4.53.88-6.45,2.73-2.25,6.87-1.75,9.23-4.74,3.59-3.29,3.84-10.64,11.25-9.3.64,1.82.74,3.57-.61,5.15,0,1.7,0,3.4,0,5.09a38.49,38.49,0,0,1-13.34,12.56Z" style="fill:#37030c"/><path d="M789,743.23l-108-.05c-2.1-5.51-7.93-11.32,1.31-15.93,34.41-1.58,68.81-1.43,103.2-.16a9.88,9.88,0,0,1,6.44,4.79C793.61,736.31,790.89,739.66,789,743.23Z" style="fill:#380d2b"/><path d="M400.42,740.73q-1.31-2.6-2.59-5.21l.15-2.59c11.87-10.79,25.43-3.49,37.81-2.45,26,2.2,51.85.65,77.77,1.06,4,.07,7.23-2.26,10.42-4.36,2.3-1.36,4.19-3.29,6.44-4.71a4.33,4.33,0,0,1,5.12,1,49.08,49.08,0,0,1,4,6,17.69,17.69,0,0,1,2.26,5,8.71,8.71,0,0,1-2.36,8.6H498.13a36.16,36.16,0,0,0-20.36,0H418.38c-3.38-2.86-6.75-2.87-10.12,0C405.37,743.23,402.43,743.49,400.42,740.73Z" style="fill:#3b0922"/><path d="M539.44,743.14c0-3.39,0-6.78,0-10.17,6.6-2.59,13.47-.94,20.2-1.14,34.8-1.05,69.6-1.15,104.41,0,6.16,4.41,1.83,7.8-1.1,11.33Z" style="fill:#360c29"/><path d="M662.93,743.15,665.51,733c.37-4,4.67-6.44,4-10.78,0-1.72.14-3.44.3-5.17a13.79,13.79,0,0,1,3.17-8.2,11.29,11.29,0,0,1,4.64-2.77,7.61,7.61,0,0,1,3.61.18,6.49,6.49,0,0,1,3.35,4.1,15.89,15.89,0,0,1-1.41,7c-1.93,4.2-.66,9.6-4.78,13,2.24,4,6.69,7.58,2.59,12.86Z" style="fill:#390922"/><path d="M791.63,735.51c-.86-1.66-1.71-3.32-2.57-5,5.06-5,11.09-5.2,17.51-3.64,3.53,4.51.64,7.82-2.1,11.15q-1.34,2.6-2.65,5.2c-.86,0-1.71-.09-2.56-.16C796.87,740.41,792.79,739.43,791.63,735.51Z" style="fill:#3b161f"/><path d="M791.63,735.51c4.72.33,7.39,2.74,7.63,7.58l-10.22.14C787,739.69,787.64,737,791.63,735.51Z" style="fill:#301434"/><path d="M477.77,743.14q10.19-5.77,20.36,0Z" style="fill:#3f1431"/><path d="M408.26,743.14c3.37-8.32,6.74-8.36,10.12,0Z" style="fill:#3f1431"/><path d="M397.66,722.73c.2-1.75.41-3.5.61-5.25,2.34-3,5-5.52,9-6.17,32.92-.17,65.85-.25,98.77-.62,5.13-.06,10.27.13,15.41-.34a7.88,7.88,0,0,1,6.34,2.39c2.67,4.52,2.19,8.85-.75,13-12.27.21-24.53-1.29-34.92-.51,8.5,1.19,19.52-2.41,30.13,2.68-3.78,6.64-9,4.89-13.33,4.92-34.07.22-68.16.76-102.09-3.54-3.73-.48-6.49-1.5-8.79-4.22A17.32,17.32,0,0,0,397.66,722.73Z" style="fill:#532753"/><path d="M398,725.11c18.13,1.74,36.23,4.27,54.4,5,21.75.87,43.56.2,65.4-.66-13.84-3.65-28.63,1-42.2-5.33,17-.63,34-3.65,50.85,1.09,2.35-.65,3.55-.12,2.66,2.58-5.54,6.12-12.35,8-20.6,7.87-32.31-.63-64.71,1.46-96.83-4.33-4.34-.78-9.14,1-13.74,1.6Z" style="fill:#3f1431"/><path d="M395.61,699.27q-.08-7.68-.13-15.34c4-7.51,11.38-6.64,18-6.68,27.72-.13,55.45-.31,83.17.08,5.38.08,11.31,1.7,15-4.22,1.85-3.41,2.41-8,7.64-8.31,8.32,6.67,2.3,15.31,3.18,23,0,1.3.07,2.58.12,3.88.42,4.38-.79,7.9-5.08,9.84-39.55,2.8-79.09-2.67-118.65-.08A7.38,7.38,0,0,1,395.61,699.27Z" style="fill:#947b76"/><path d="M395.61,699.27c.67.2,1.35.36,2,.5,10.74,3.5,21.69.4,32.52,1,5.84.32,11.89-.78,17.18,2.85,5.59,8.23-.79,8.36-6.09,8.64-11.49.6-23-.37-34.49,0-3.24.23-6.36,0-8.85-2.47C396.23,706.48,394.8,703.12,395.61,699.27Z" style="fill:#5c3d46"/><path d="M397.91,709.79l7.72.12a3.26,3.26,0,0,1,0,4.93l-7.34,2.64Z" style="fill:#6e4d52"/><path d="M703.94,568.24c.12.82.22,1.63.28,2.45,2,4,1.5,8.91,4.47,12.59,1.73,3.73,2.08,7.81,3,11.75a11.12,11.12,0,0,1-.53,4.21c-6.35,7.66-9.87,2.46-12.3-3.22-2-4.57-1-9.79-1-14.72-.29-2,1.35-4.86-.68-5.87-2.47-1.22-3.4,1.51-4.29,3.45-1,2.14-2.51,3.32-5,2.22a9.72,9.72,0,0,1-2.32-5.39,12.26,12.26,0,0,1,2-8.09C693.23,563,698.79,560.3,703.94,568.24Z" style="fill:#907273"/><path d="M703.94,568.24c-5.07-4.18-10.15-.8-15.23,0-2.24-1-4.9-1.14-6.4-3.48a4.23,4.23,0,0,1,1-4.31l.31.12c5-9,11.57-11.45,20.37-5.06Q704,561.88,703.94,568.24Z" style="fill:#9b8478"/><path d="M794.18,560.54c-6,4.19-104.8-5.79-110.56,0,0-5.11-2.69-15.5-2.67-20.61,3.11,1.24,107.87,0,113.23,0C799.33,540,803.72,553.9,794.18,560.54Z" style="fill:#ad9784"/><path d="M802.84,557.4c.71,1.62,3,34.61,6.64,42.08,1.59,3.69-4,3.89-7.73,5.14a58.19,58.19,0,0,1-31.34,1.3c-4.56-1-6,12.47-4.54,8.66,1.82-4.87-59.49,2.6-59.18-2.57.41-4.06-7.71-40.87-5.15-43.75C706.62,569,800.76,552.7,802.84,557.4Z" style="fill:#7e6268"/><path d="M537,501.39c4.29-1.19.51-6.6,4.22-8.09,7.31,8.39,17.58,4.94,26.08,5,28.52.36,57.12,2.05,85.64-1.24,3.79-.43,8.57-1.6,12.27,1.65-1.43,8,6.69,15,2.43,23.24-.8,1.55-1.81,3.18-3.7,3-35.29-3.27-70.66-.88-106-1.72-5.38-.13-11.34-1.47-15,4.51a9.14,9.14,0,0,1-3.57,2.51c-6-1-5.56-6-6.16-10.25-.1-2.18-.11-4.37-.08-6.56C533.13,509,533.48,504.72,537,501.39Z" style="fill:#ecebcc"/><path d="M539.34,529.56q.12-1.17.18-2.34c13.88-8.32,29.11-2.69,43.64-3.8,21.51-1.65,43.15,4,64.84,0,7.34-1.36,14.41.42,19.88,6.19-1.38,4.14,3.27,6.52,3,10.33-3,4.7-7.74,4.17-12.44,4.09-15.14-.25-30.28-.18-45.42.42a10.66,10.66,0,0,0-7.66,3.25,5.18,5.18,0,0,1-3.75.82,8.14,8.14,0,0,1-2.83-2.45c-7.22-12.55-18.33-6.38-28.27-5.82-4.56.46-8.43-1.4-12.23-3.53-5.5-2.19-10.9,1.43-16.39.3a6.83,6.83,0,0,1-3.26-2A4.6,4.6,0,0,1,539.34,529.56Z" style="fill:#d8caaa"/><path d="M667.88,529.59a56.28,56.28,0,0,0-30.12-.74c-15.55,4-31-2.15-46.8-1.12-17.07,1.11-34.29-.24-51.44-.51,2.16-6.12,5-8.65,12.9-8.34,28.09,1.1,56.24.44,84.37.5,10.34,0,20.77-.88,30.82,2.61C667.19,524.54,669.86,527,667.88,529.59Z" style="fill:#e8e1bd"/><path d="M603.87,547.7c-.38-6.3,2.4-7.43,8.59-7.3,19.47.4,39-.24,58.45-.48,3.71,1.6,1.71,5.18,2.68,7.73-.13,2.59-.26,5.19-.38,7.78a1.89,1.89,0,0,1,.86,1.92q-.26,1-.57,1c-9-4.87-17.7-7.36-24.16,3.89-2.82,2.35-5.53,5-9.73,3.88a6,6,0,0,1-1.56-4.93c.34-3,3-6.06-.57-8.79-7-2.18-14.05-.55-21-1.07C612,551.05,607.18,551.93,603.87,547.7Z" style="fill:#b4a186"/><path d="M672.88,557.72a17.79,17.79,0,0,1,.33-2.29c3.65,4.54,1.74,10.18,3,15.19,2.37,2.17,3,5,3.18,8,.09,4.42.34,8.85-.56,13.23-3.19,7.19-6.19,6-8.55-.41-2.2-6,.14-12.71-2.43-18.73a18.56,18.56,0,0,1,.28-8.45A12.34,12.34,0,0,1,672.88,557.72Z" style="fill:#9f817d"/><path d="M676.21,578.52v-7.9c4-4.89,1.12-10.87,2.54-16.17l2.16,6.1c1.65,4.31,3.61,8.56,2.56,13.4a8.52,8.52,0,0,1-3.52,4.76A3.36,3.36,0,0,1,676.21,578.52Z" style="fill:#4c2c2a"/><path d="M680.49,576.1l.42-15.55c.8,0,1.6,0,2.4-.11l.36,5.29c5,5,2.39,10.64,1.56,16.17-1.2,1.76-2.63,2.85-4.86,1.73C678.62,581.09,679.48,578.59,680.49,576.1Z" style="fill:#cdada9"/><path d="M528.55,524.48c-1.74,1.52-3.54,6.24-5.13-.09-1.81-2.72-1.51-5.24.7-7.59q4.27-10.15,8.56-20.32a11.77,11.77,0,0,1,1.42-.35c.29,1.74.57,3.48.86,5.21.86,2.42.57,4.89.36,7.36-2.42,4.91,1.19,11.73-4.89,15.48Z" style="fill:#9a8873"/><path d="M534,508.29l1-7,2,.05-1,12.68C531.46,513.49,533.48,510.63,534,508.29Z" style="fill:#210505"/><path d="M524.12,516.8q-.35,3.8-.7,7.59l-4.57,2.67c.41-8.75-5.86-7.82-11.35-7.67-28.7.78-57.43-1.53-86.13.78-2.09.17-2.66-1.6-2.95-3.34,23.53-1.08,46.46-8,70.49-5.61C500.86,512.4,512.56,513.82,524.12,516.8Z" style="fill:#edebcd"/><path d="M503.24,552.88c3.72-8,14.24.24,18-7.59,2.62,1.82,3.3,4.53,3.48,7.49a11.55,11.55,0,0,1-2.42,8c-7.35,3.46-13.56,1.35-19.11-4A3.77,3.77,0,0,1,503.24,552.88Z" style="fill:#a59081"/><path d="M521.47,552.7c-.07-2.47-.15-4.94-.22-7.41,0-1.77.09-3.55.14-5.33l4.6-.08c1.92,1.16,2.39,3,2.38,5.07C527.23,548.56,527.29,553.25,521.47,552.7Z" style="fill:#c9b39f"/><path d="M526.09,545.12c0-1.75-.07-3.49-.1-5.24a23.5,23.5,0,0,0,2.56-15.4l1.2.22c2.68-1,4.2.4,5.34,2.58.28,3.94,1.34,7.83.83,11.84-1.31,5.21.34,11-2.92,15.84a4.66,4.66,0,0,1-3.37,1.43,5.91,5.91,0,0,1-4.16-3.67C525.31,550.16,524.89,547.58,526.09,545.12Z" style="fill:#3f2618"/><path d="M814.81,668.68c3.7-2.7,5.32.65,7.44,2.54l-.09,51.21-7.41,13.09c-10.06-.8-7.85-9.59-7.33-14.42.94-8.85.26-17.77,1.7-26.54C813.41,686.47,807.73,676.16,814.81,668.68Z" style="fill:#140a24"/><path d="M812.29,694.43c-.61,9.72,1,19.52-2.22,29.15-1.55,4.59-.55,9.4,4.68,11.94-2.75,3.59-6.7,2.33-10.28,2.53q1.21-5.16,2.45-10.32a10.44,10.44,0,0,1-3.06-6.54,27.07,27.07,0,0,1,.42-7.24,25.21,25.21,0,0,1,.79-3.44c1.74-5.09.85-10.35,1-15.55,0-1.24,0-2.45,0-3.69a21.61,21.61,0,0,1,.59-5.72,7.62,7.62,0,0,1,3.37-4.77,2.82,2.82,0,0,1,3.26,1.7C813.17,686.49,814.48,690.6,812.29,694.43Z" style="fill:#30071b"/><path d="M812.29,694.43l-.42-13.6c-6.38-13.94-3.13-28.37-2.13-42.7a6.34,6.34,0,0,1,3.31-3.1c3.73,11.05.77,22.46,1.76,33.65C813.67,677.24,817.28,686.26,812.29,694.43Z" style="fill:#230d1a"/><path d="M811.9,619.23l.3,2.71a3.41,3.41,0,0,1,.09,5q.38,4,.76,8l-1,.13C803.47,629.94,804.36,624.62,811.9,619.23Z" style="fill:#4e2311"/><path d="M693.82,609.43c8.22-2.63,85.75,1.86,94.08,1.44,6.52,0,13.12.74,19.4-1.88a7.53,7.53,0,0,1,3.4-.27l1,1.36.15,9.15c-4.72,5.36-3.37,10.66.17,15.93q-.09,22.83-.2,45.67a14.23,14.23,0,0,1-1.84,1.44,7,7,0,0,1-2.88-3.12A17.93,17.93,0,0,1,806,673c-.16-6.6,0-13.21-.11-19.81-.71-3.66,1.16-7.84-2.22-11-8.33-1-16.55-3.35-25-1.12-2.65,1-4.88,3.21-8,2.65-3.53-1.45-16.37,5.08-20.21,4.31-12.86-2.57-60-5.34-64.33-5.14" style="fill:#bfac90"/><path d="M806.86,720l.06,7.7c-5.83,1.71-11.7,3.22-17.86,2.81l-110.65-.22c.48-5.24-1.62-10.85,2.26-15.59,12.14,5.21,25.33,5.76,37.57,3.58,22.69-4,44.8,1.39,67.18,1.37C792.5,719.67,799.77,718.25,806.86,720Z" style="fill:#4a213b"/><path d="M673,717.34l.09,5.2c-1.73,3.88-4.92,5.62-9,6.13-14.28,0-28.65,1.84-42.74-2-10.32.13-20.74-1.58-30.9,1.67-13.93.68-27.87.71-41.8.67-5.1,0-10.22.08-14.33-3.72l-2.52-2.85c-2.52-2.87-2.41-5.73,0-8.59,16.28-3.68,31.4-5,48.59,1.38,11.64,4.33,27.71,2.22,41.38-1.79,12.58-3.69,25.37-3.07,38.17-2.67C665.3,710.89,670.26,712,673,717.34Z" style="fill:#522e42"/><path d="M621.73,722.7c14.39,4.57,29.23,1.72,43.84,2.6,1.57,2.79.78,4.89-2,6.2-3.59,1.69-7.48,1.54-11.29,1.42-33.5-1-67,.18-100.51,0-5.11,0-10.2-.16-14.91-2.55-2-1.18-2.49-3-2.48-5.16h56.5C601,721.76,611.66,726.19,621.73,722.7Z" style="fill:#4d2244"/><path d="M536.86,730.4c38.71,0,77.42.07,116.12-.11,4.57,0,10.76,2.54,12.59-5l7.53-2.76c1.1,6.12-3,8.47-7.59,10.43-9.73,4.77-20.4,3.59-30.12,2.19-25.9-3.76-51.54,2.35-77.29.41-6.3-.48-12.82.92-18.68-2.6Z" style="fill:#3a1030"/><path d="M531.78,714.9q0,3.75.08,7.49-1.36,2.7-2.72,5.4l-2.66-2.58-.09-12.66c-4.46-5.26-3.77-11.19-2.23-17.23.77-2.26,2-4,4.69-4.08,5.42,3.94,6,9.82,6.33,15.8A12.15,12.15,0,0,1,531.78,714.9Z" style="fill:#360b1d"/><path d="M531.78,714.9v-7.79c3.34-7.23,9.78-7.12,16.33-7.07,34.1.28,68.19,0,102.29.21,8.52.06,17-.49,25.45-1.18,3.21,3.63,2.19,7.19-.2,10.72-2.56,1.93-2.16,4.9-2.64,7.56a115.61,115.61,0,0,0-50.28.47c-14.74,3.33-29.81,5-45.23-1.59-8-3.42-18.46-1.09-27.81-1.27C543.72,714.85,537.75,714.92,531.78,714.9Z" style="fill:#5d3a50"/><path d="M806.86,720c-5.15,4.54-11.16,6.83-17.77,4.6-7.15-2.42-14.46-1.15-21.61-2.08-25.13-3.27-50.21.25-75.31.11-5.76,0-11.66.52-11.5-7.93l2.64-4.82c1.05-.76,2.22-1.58,3.49-1.35,28.27,5.1,56.93-3.35,85.21,2.45,7.19,1.47,14.24-2.34,21.6-1.47,4.63.54,9.37.2,13.51,2.93C807,715,807,717.51,806.86,720Z" style="fill:#59384d"/><path d="M807.12,712.47c-14.51,0-28.75,3.36-43.58.86a107.63,107.63,0,0,0-36.43,0c-15.27,2.77-29.39.12-43.8-3.41l-2.81-2.64a5,5,0,0,1,.28-5.82,7.29,7.29,0,0,1,6-.72c4.12,3.5,8.76,1.6,13.27,1.3,14.64-1,29.3-3,43.84.71,3.33,2.9,2.36,4.64-1.37,5.62,4.89.51,4.56-6.45,9.09-6.72,11.66-.3,23.52-3.69,34.74,2.33.86,5.94-3.76,4.45-6.57,4.4-5-.09-10.12,1.19-12.95,0,6.46-.18,14.77.5,23.41-1.41,5.84-1.29,13.85-4.23,16.93,5.39Z" style="fill:#6b4d5c"/><path d="M681.3,702.28c-.26,1.66-.52,3.33-.79,5-.71,0-1.41-.08-2.11-.1-2.24-3.33-.41-8.3-4.42-10.93-2.14-4-2.13-8.3-1.86-12.65a38.52,38.52,0,0,1,.79-9c4.08-22.21-.21-44.62,1.7-66.88-1-5.55,2.43-10.41,2.49-15.8.51-4.44-1.15-9.09,1.23-13.37l2.16-2.48q.5,3.67,1,7.36c4.52,4.82,2.74,10.87,3.22,16.48.16,5.3-.59,10.67,1,15.89a17.93,17.93,0,0,1,.22,5.66c-.47,3.52-1.16,7-.8,10.63a25.87,25.87,0,0,1,1,12.25c-1.84,5.55-2.33,11,.88,16.34a10.19,10.19,0,0,1,.24,3.69,29.07,29.07,0,0,1-1.88,5.53C682.62,680.54,688.06,692.19,681.3,702.28Z" style="fill:#45211a"/><path d="M676.13,697c3.2,2.84,2,6.67,2.27,10.16l-2.75,2.62c-.06-3.46-.12-6.91-.19-10.37A1.65,1.65,0,0,1,676.13,697Z" style="fill:#2f050b"/><path d="M405.61,714.84c0-1.65,0-3.29,0-4.93,11.9,0,23.79,0,35.68-.15,3.15,0,7.73,1.16,5.36-5,7.54-5.34,16.43-4.4,24.52-3.6,15.78,1.57,31.43.12,47.14,0,8.6,1.35,9.16,3.4,3.06,11.26-.72,5-4.1,2.64-6.83,2.63Q460.08,714.9,405.61,714.84Z" style="fill:#6b4d5a"/><path d="M521.39,712.46c1.37-4,5.36-8.42-1.95-10.82-.91-.28-1.28-.68-1.13-1.21s.37-.89.62-.89c1.63-2.47.92-5.11.55-7.73,3.66-2.7,5.45-.39,7,2.61l-.06,18.13Z" style="fill:#3f1431"/><path d="M518.93,699.54c.18.7.35,1.4.5,2.1-14.46,6.9-29.93,1.43-44.86,3.55-9.1,1.29-18.59-.17-27.9-.4-13,0-26,0-39-.1-4.05,0-8.78,1-10-4.92,16.33-3.62,32.81-2.7,49.36-2C471,698.71,495,699,518.93,699.54Z" style="fill:#806467"/><path d="M495.69,663.45c2.44-4-.85-9.06,2.58-12.82,4.49-9.78,12.62-4.2,19.35-4.58,1.06,5.65,7.76,13.38,3.78,20-5,.72-1.95,4.7-5.27,5.08C505.67,672.32,502.29,666.59,495.69,663.45Z" style="fill:#e7dab9"/><path d="M520.89,665.56c-1.08-5.89,2.29-7.59.51-17.53-1-5.69-3.73-9.66-3.81-14.71-.06-4-.22-8,.73-11.92.7-2.2,1.76-4.09,4.06-5a4.56,4.56,0,0,1,3.71,2.43c3.39,21.35,1.18,42.8,1.26,64.21-1.13,4-2,8.29-7.92,6.32C519.92,681.44,522.33,673.38,520.89,665.56Z" style="fill:#583630"/><path d="M519.43,689.38c3.2-.39,4.52-2.44,4.76-5.43,1-1.35,1.46-3.16,3.48-3.43l1.71.4a7.41,7.41,0,0,1,2,2.89c.63,3.09.51,6-2.4,8l-2.47,2.62-7-2.61A2.27,2.27,0,0,1,519.43,689.38Z" style="fill:#411a19"/><path d="M395.35,619.71l-.09-15.42c3.24-1.83,6.42-.79,9.62.15,6.11,2.87,13.76-.71,19.29,4.58a4.72,4.72,0,0,1-.78,5.71c-6.25-.1-12.76.87-18.66-.6C398.67,612.61,398.09,617.32,395.35,619.71Z" style="fill:#d0c1ac"/><path d="M402.86,607l-7.6-2.68c-.24-.89-.47-1.79-.71-2.68q1.6-2.65,3.23-5.3c6.77-.7,12.08-5,18.16-7.41.22,3.58-1,7.52,2.51,10.3l.87,1.55a5,5,0,0,1-2,2.76C412.55,604.85,408.07,607.46,402.86,607Z" style="fill:#7a5e63"/><path d="M711.79,596.46c.12,2.17.71,4.09,2.72,5.29,2.09,3.23.56,5.38-2.13,7.2-7.71,2.26-15.32,2.69-22.65-1.34a14.11,14.11,0,0,1-2.91-2.76c-2.6-4.34-5.37-8.68-2.43-14a10.22,10.22,0,0,1,4.08-3.2c4.26-3.14,3.8-13.12,13-9.07.12,5.78-.53,11.71.57,17.3.95,4.79,4,8.27,7.18.73Q710.42,594.69,711.79,596.46Z" style="fill:#796160"/><path d="M701.51,578.58c-1.79,3.23-11.19,1.71-5.83,9.57,1.07,1.58.56,4.66-2.16,4.46-1.61-.12-3-2.47-4.57-3.82q-3.71-3.88,0-7.75c3.68-1.71-.07-9.31,7.73-8.59C702,572.94,701.48,575.33,701.51,578.58Z" style="fill:#816a68"/><path d="M683.54,581.11q.06-7.7.13-15.38c2.91-1.64,5-1.62,5,2.5l-.06,7.81c-1.82,1.5-.84,4.12-2.3,5.76A2.39,2.39,0,0,1,683.54,581.11Z" style="fill:#856964"/><path d="M801.94,596.43l7.59,2.92a3.43,3.43,0,0,1,.34,3.86c-3.75,9-11.77,8.55-19.49,8.79-8.54-.61-17.21,1.38-25.65-1.33L763.36,609c1.85-9.85,3.75-19.69,10.24-27.84,2.65,5.87-.74,10.7-2.73,15.78-.9,2.3-2.63,4.64.36,6.74,2.08,1.46,29.91-1.49,31.3-3.6C803,599.31,802.18,597.67,801.94,596.43Z" style="fill:#7b6460"/><path d="M534.31,537.45c-2.44-3.41-2.38-6.9-.34-10.46-1.31-3.43-2.63-6.88,2.51-8.38,1,3.65-.72,8,2.86,10.95,0,1.7,0,3.41-.05,5.11.4,2.56.24,5-1.56,7.09C532.17,543.84,532.64,541.12,534.31,537.45Z" style="fill:#edd6c7"/><path d="M536.48,518.61c-.84,2.79-1.68,5.59-2.51,8.38l-4.22-2.29q2.13-8.19,4.25-16.4l2,5.77C536.17,515.58,536.32,517.09,536.48,518.61Z" style="fill:#200b05"/><path d="M570.35,537.45c7.1-4.05,14.84-2.72,22.4-2.56,6.48.14,49.6,7.64,52.17,12.78,3,6,.47,16.12-5.14,15.44-5-.6-67.2-.91-72.06,0-6.1,0-12.53-6.69-18-5.14-6.89,1-9.64,2.16-14.25-7-.6-2.66-.34-5,2.17-6.68,4.61-1.84,9.94,4.67,14.19-1.24a24.42,24.42,0,0,1,3.69-3.64,10.22,10.22,0,0,1,3.15-1.48C562.54,537.36,566.56,540.39,570.35,537.45Z" style="fill:#b4a186"/><path d="M557.47,540l-2.66,5c-3.43,3.13-7,1.44-10.55.32-3.08-.86-5.87-2.12-7.28-5.29l2.31-5.33,2.68.15C546.43,538.69,555.34,529.2,557.47,540Z" style="fill:#c9b99b"/><path d="M557.47,540c-3.31-7.26-12.34,2.55-15.49-5.19,5.94-1.5,11.83-3.41,18.11-2.47,2.61,3.75-.09,5.67-2.63,7.65Z" style="fill:#d3c5a5"/><path d="M557.46,540c.87-2.55,1.75-5.11,2.63-7.66,2.83,2.89,5.63,5.84,10.26,5.11C566.62,541.19,561.8,539.38,557.46,540Z" style="fill:#c9b99b"/><path d="M670.64,563.14c0,2.56,0,5.13,0,7.69-2.41,3,3.45,11.38-6.24,9.8-7.13-6.49-14.67.74-21.95-.64a7.62,7.62,0,0,1-3.34-1.09,13.33,13.33,0,0,1-3.2-8c.21-2.52,1.26-4.37,4-4.84l7.63-5.6C655.57,558.56,664.28,550.7,670.64,563.14Z" style="fill:#8b6e6e"/><path d="M670.64,563.14c-7-7.24-15.6-.07-23.1-2.68C658,545.6,664.06,545,672.89,557.72,673.07,559.91,672.65,561.85,670.64,563.14Z" style="fill:#b69585"/><path d="M634,571.38c-1.37-5.32,3-7.34,5.86-10.23l.09,4.91-2.77,4.7A2.54,2.54,0,0,1,634,571.38Z" style="fill:#b69585"/><path d="M665.5,578.56c5.49,0,.6-7,5.16-7.73,4,6.89,2,14.52,2.74,21.82,0,.3.39.56.6.84l2-2.28c1.07-.9,1.74-.71,1.94.73l-.19,15.29a6.9,6.9,0,0,1-3.33,1.51,12.67,12.67,0,0,1-3.68-.39,82.92,82.92,0,0,0-32.56,1.55c-5.33.56-78.36,2.43-83.35-.47-5.42-8.64-2.85-29,0-36,1.22-3.4,74.74,6.44,76.15,3.12,3.7-2.71,5.8,1.6,8.78,2h0c3.94,3.66,8,.83,12.06.32C656.37,578.29,660.89,575.73,665.5,578.56Z" style="fill:#7f6066"/><path d="M678,591.94a8,8,0,0,0-1.94-.73q.09-6.35.17-12.69l2.13.06Z" style="fill:#53342e"/><path d="M688.67,578.55c.28,3.27,1.15,9.8,0,12.87-3,7.92,1.44,18-2.57,18-2.57,0-2.67-5.24-4.63-8.63V583.46l2.07-2.35C684.24,581.18,688,578.42,688.67,578.55Z" style="fill:#a88888"/><path d="M503.24,557.74a13.24,13.24,0,0,1,.66-2.31l17.51,5.09a5.44,5.44,0,0,1,1.49,3.26,7.71,7.71,0,0,1-1.23,3.46c-3.92,4.8-8.22,5.23-12.92,1.13C505.76,565.43,501.25,563.26,503.24,557.74Z" style="fill:#9b827a"/><path d="M521.48,562.72a20.21,20.21,0,0,0-.07-2.2l.06-7.82,4.62-7.58.84,7.79c.59,3.81.73,7.52-2.32,10.53A2.22,2.22,0,0,1,521.48,562.72Z" style="fill:#b39a8d"/><path d="M500.78,558.43c-.34,5-3.74,7.55-7.54,9.86-1.68-.07-1.94-1.58-2.66-2.62l-.83.11C491.84,561,496.28,559.64,500.78,558.43Z" style="fill:#9b827a"/><path d="M537,540l7.57,2.56c0,4.27-2.06,4.41-5.13,2.57-2,1.17-2.49,3.07-2.51,5.2,2.21,3.37.81,7.1,1.07,10.67a73.38,73.38,0,0,1-.37,9.25,11.68,11.68,0,0,1-2,5.29,4.21,4.21,0,0,1-3.44,1.41,6.6,6.6,0,0,1-4.26-3.68,9.86,9.86,0,0,1-.48-3.81c1.06-4.87.08-10.27,3.73-14.48,1.2-5.81-.78-12.21,3.18-17.53C535.3,538.2,533.39,542,537,540Z" style="fill:#c2ada0"/><path d="M529.58,571a5.11,5.11,0,0,0,.13,2.49,2.28,2.28,0,0,1-.74,3c-3.7.25-5.12-2.34-6.43-5.1-1.26-3,.93-5.52,1.26-8.3-.42-3.86.35-7.34,3.13-10.21.84,1,1.67,2.05,2.51,3.08A27.9,27.9,0,0,1,529.58,571Z" style="fill:#3c1e16"/><path d="M529.58,571q-.08-7.51-.14-15a13.72,13.72,0,0,1,1.69-1C531.76,560.44,532.71,565.93,529.58,571Z" style="fill:#826e68"/><path d="M809.61,686.63c-.05,1.71-.11,3.42-.16,5.13-5.54,4.4-12.4,3.06-18.51,3.39-32.1,1.73-64.23-1.28-96.35-.1-6.23.23-8.74-2.35-7.84-8.44,5.57-12.91,17-8.36,26.58-8.59,4.57-.11,8.91,2.62,13.62,2.78,22,.51,44-1.35,66-.62C799.31,680.39,806,679.58,809.61,686.63Z" style="fill:#a89080"/><path d="M689,686.15c.59,2-2.64,5.7,3.44,5.09,34.78-3.44,69.65,3.88,104.49-.62,4.07-.52,8.37.72,12.57,1.14,0,.86.09,1.73.13,2.59-1.16,2.08-2.45,4-4.7,5.12-8.33,2.57-16.91,1.34-25.34,1.21-26.8-.42-53.56.93-80.33,1.49-5.18.11-10.28.41-14-4.14-3.22-10.53-1.29-21.28-1.39-31.94.7-.93,1.4-1.85,2.09-2.78,3,.66,4.48,2.78,5.45,5.45a20.52,20.52,0,0,1,.63,8A91.78,91.78,0,0,1,689,686.15Z" style="fill:#967d77"/><path d="M809.61,686.63c-23.86-5.2-47.88-2.38-71.84-1.12-3.77.2-7.37,2.16-10.51-1.39a2.08,2.08,0,0,1-.8-1.93c.11-.72-4.52-.7-4.33-.7,3.86-1.32.9-6.16,2.57-10.3.9-1,13.23,1,14.48.49a14,14,0,0,1,8.34-.15c15.22,2.09,30.51.48,45.76.93,6,.17,12.08-.4,15.86,5.71.3,1.37.59,2.73.89,4.1Z" style="fill:#bfad92"/><path d="M806.91,696.85l2.67-2.5c-.55,6,1.82,12.49-2.42,18-10-5.38-20.7-1.5-31-2.52-4.94-.49-10-.08-17.92-.08,11-5.21,20.54.62,28.32-5a5.8,5.8,0,0,1,4.7-2.08c3.88.22,7.95,2.15,11.4-1.31C804.05,699.88,805.57,698.45,806.91,696.85Z" style="fill:#5c3c46"/><path d="M745.29,673.78l-7.39-.15c-4.17,1.59-8.14,3.84-12.81,3.71a203.9,203.9,0,0,1-36.05-1.2q0-3.85.07-7.73c.36-4,.85-8.07,3.06-11.65,2.18-3.85,11.52-22.62,14.52-21.59,11,3.87,9.48,0,20.58,2.57,8,3.3,33.06,1.61,36,0,1.73-1.65,13.06-2.34,15.44-2.57,12.14-1.17,17.94.22,28.35,2.7,5.23,1.25,2.14,8.43,2.47,12.79-3.48,6,1.29,13.4-3.06,19.31-8.72,4.81-18.17,1.77-27.26,2.45C767.94,673.27,756.52,671.11,745.29,673.78Z" style="fill:#e3d7b3"/><path d="M745.29,673.78c1.34-6.82,6.82-5.06,11.13-5.1,16.87-.14,33.74,0,50.6,0,1.45,1.2,1.22,3.16,2.07,4.63l.06,4.91c-16.33-3.9-32.92-.82-49.34-1.89C754.9,676,749.53,678,745.29,673.78Z" style="fill:#dacca9"/><path d="M763.21,614.49c0-1.62,0-3.24,0-4.86l28.45-.06a3.37,3.37,0,0,1,0,5Z" style="fill:#cebaa0"/><path d="M791.64,614.57c0-1.67,0-3.33,0-5,6.57-.89,13.12-1.88,17.7-7.5l.69,6.76C806.05,617.62,798,613.39,791.64,614.57Z" style="fill:#cdc1af"/><path d="M809.09,673.27,807,668.64c.93-6-2.16-12.53,2.54-18Q809.34,662,809.09,673.27Z" style="fill:#efe2bf"/><path d="M621.73,722.7c-9.92,5.24-20.6,1.29-30.85,2.53C600.79,719.88,611.48,723.93,621.73,722.7Z" style="fill:#482136"/><path d="M528.93,691.8q.27-5.25.53-10.49c5.08-4,11.15-4.23,17.14-4.29,36.83-.36,73.67-.25,110.51-.06,7,0,13.8.69,18.46,7q.28,6.54.56,13.09a11.8,11.8,0,0,0-.67,2.41c-2.53,2.09-2.43,5.92-8.15,5.81-41.68-.84-83.38-.56-125.07-1.23-4.36-.08-7.13,1.59-10.46,3.11Z" style="fill:#977f78"/><path d="M791.57,704.78H747.79c-.82.94-1.64,1-2.46,0-16.91.28-33.89-1.54-50.69,1.84-4.06.82-7.79,1-8.54-4.51-1.55-1.88-1.34-3.65.32-5.33,9.72,3.94,20.19,3.72,29.91,2.36,30.18-4.23,60.42-.92,90.58-2.29,0,2.58,0,5.15.05,7.73C801.86,706.75,796.73,706.48,791.57,704.78Z" style="fill:#806367"/><path d="M686.42,696.78c-.11,1.78-.22,3.55-.32,5.33l-4.8.17c.75-12.07-2.91-24.44,2.5-36.19C688.18,676,685.24,686.57,686.42,696.78Z" style="fill:#5e3b3a"/><path d="M745.33,704.78q1.23-.06,2.46,0c-1,11.44-8.65,1.88-12.47,4.44C737.9,705.72,742.91,708.58,745.33,704.78Z" style="fill:#5b3d47"/><path d="M675.57,683.92a66.37,66.37,0,0,0-20.1-2.56c-42,.11-84,0-126-.05l-.46.23c-2.91-3.27-2.47-7.18-2.14-11.07,2.49-4.53,2.35-11.53,10.25-11.07,13.82,2.68,26-1.56,37.57-8.76,16.42-2,32.92-.82,49.35-1.22l3.83-.09c7.37-2.15,14.92-3.83,22.55-2.34,9.68,1.9,17.51-3.79,26.29-5.5.27,11.8,1.28,23.59-.55,35.34C676,679.19,675.76,681.56,675.57,683.92Z" style="fill:#e2d5b1"/><path d="M567.72,609.43c1.49-3.14,50.76,1.29,54,0,15.71-1.9,31.48,1.08,47.22,2.27,1.93.15,3.33.72,3.06-2a4.39,4.39,0,0,1,1.23-2.75l4.51.32c-.42,23.2,2.49,46.48-1.63,69.6-2.44-12,3.25-24.73-2.91-36.48-12,3-24.25.92-36.37,1.34-3.34-.68-6.5-2.2-10-2.29a66.18,66.18,0,0,0-6.61-.76c-1.75-.58-56.65.58-57.69-.9" style="fill:#beac93"/><path d="M683.53,632.59c.35-3.49,0-5.14,0-10.28a7.93,7.93,0,0,1,6.55-8.06,6.39,6.39,0,0,1,3.85,4.09c.93,6.08,2.37,12.24-3.07,17.17C687.1,636.76,686.34,634.55,683.53,632.59Z" style="fill:#bba991"/><path d="M693.84,658.31a15.48,15.48,0,0,1-4.74,10.1l-3.21-5.1a7.31,7.31,0,0,0,.25-2.37c-.07-.59-.14-1.18-.22-1.77-.21-3.22.65-6,3.29-8.07C697.5,649.17,695.33,654,693.84,658.31Z" style="fill:#f4e1c2"/><path d="M683.53,635.17c1.51-2.2,3.4-2.72,5.24-.18.1.56.2,1.13.31,1.69a111,111,0,0,1,1.06,12.1,5,5,0,0,1-2,2.87c-1.88.79-.44,2.82-2,1.53-.76-1.83-3.63-6-2.57-7.72C684.74,640.94,681,638.84,683.53,635.17Z" style="fill:#c2ad97"/><path d="M683.19,617.2c.22-1.72.43-3.45.65-5.17,1.74-.9,3.08-.16,4.3,1.07l.6,1.52c0,3.74-.27,7.26-5.17,7.69Z" style="fill:#dac6a7"/><path d="M458,707.93H469.6c0,.42,0,.85,0,1.28h-12Z" style="fill:#5b3c46"/><path d="M526.67,681.28,524.19,684q-.37-33.66-.74-67.32c-1.17-9.22-6.68-18.44,0-27.66,4.76-1.17,5.24,2.54,6.35,5.55.61,22.68,1.29,45.37-.44,68C527.56,668.66,528.59,675.19,526.67,681.28Z" style="fill:#3f1a13"/><path d="M524.6,589.1q-.57,13.77-1.15,27.53c-.48.32-1,.65-1.42,1-1.06-3.06.15-7-3.5-9.08a8.85,8.85,0,0,1-2.08-2.88,14.54,14.54,0,0,1-.73-3.5c-.25-4.18.85-8.16,1.81-12.15a74.38,74.38,0,0,0,.1-11.94,39.16,39.16,0,0,1-.7-5.17,8.86,8.86,0,0,1,4.47-7.21c0-1,.05-2,.08-2.95a18.42,18.42,0,0,0,2.32.39c3.21,2.27-1.4,5.51,1,7.89C525.43,577.05,530,583.12,524.6,589.1Z" style="fill:#91746e"/><path d="M526.67,681.28q.21-9.15.41-18.32a2.74,2.74,0,0,1,3,.86,4.23,4.23,0,0,1-.66,4.77q-.23,6.48-.44,13A22.76,22.76,0,0,1,526.67,681.28Z" style="fill:#583630"/><path d="M711.85,606.87a13.63,13.63,0,0,0,0,1.69c-6.88,7.33-14.71,5-22.58,2.21-2.1-2-2.3-4.15-.65-6.5v0C695.87,609.81,704,606.1,711.85,606.87Z" style="fill:#816a68"/><path d="M534.65,560.7q1.13-5.19,2.26-10.37c5.19,6.24,12,1,17.88,2.56a3.93,3.93,0,0,1,2.43,2.53l4.86,5.36C552.21,570.2,544.1,570.18,534.65,560.7Z" style="fill:#9f897c"/><path d="M539.42,545.13l5.13-2.57L554.81,545C549.76,553.63,544.6,549.64,539.42,545.13Z" style="fill:#b6a28d"/><path d="M557.22,555.42l-2.43-2.53c3.94-3.37,7.49-7.43,13.25-7.64C566.18,550.5,561.28,552.51,557.22,555.42Z" style="fill:#b6a28d"/><path d="M534.65,560.7c9.13,5,18.28,3.92,27.43.08.92.65,79.35-.89,80.27-.24,1.74,1.55,21.17,18.46,20.59,20.59-.84,2-98.91-9.37-100.77-8.33-7.74,2.94-15.86,1.51-23.83,2-2.21-.5-2.92-2.55-4.17-4Z" style="fill:#8f7872"/><path d="M665.5,578.56c-5.68,3.8-12.92,2.11-18.94,6.07-4.42,2.91-6.12-2.14-6.77-6.1,6.12-1.57,12.22-3.26,18.37-4.68C662,573,664.92,574.08,665.5,578.56Z" style="fill:#7c6769"/><path d="M639.79,578.54c-3.72,2.68-5.37-.76-7.57-2.57-.84-.38-1.16-.82-1-1.34s.41-.84.66-.84l2.05-2.41,3.18-.62C640,572.67,639.74,575.66,639.79,578.54Z" style="fill:#7c6769"/><path d="M621.65,608.58c.08-.65.18-1.3.32-1.94l17.82.2a102,102,0,0,1,33.13-.34l.35.41c-.18.66-.34,1.31-.5,2C655.7,613.67,638.65,614.52,621.65,608.58Z" style="fill:#8c7267"/><path d="M672.92,606.5l-33.13.34C650.8,603.56,661.83,601.42,672.92,606.5Z" style="fill:#7a5e5b"/><path d="M521.4,565.68c-.85,2.55-1.69,5.1-2.54,7.65.89,8.45-2.19,13-11.32,11.16-7.13-1.47-18.75,6-19.16-9.33,1-2,.84-5.26,4.59-4.44,6.28-.81,13.48,1.69,18.12-5C514.53,571.53,518,565.53,521.4,565.68Z" style="fill:#836d6d"/><path d="M534.17,570.76l2.75,2.54c7.72,3.51,16.3-.76,24.06,2.66a10.2,10.2,0,0,1,2,3.54c1.29,7.65.29,15.46,1.72,23.11a9.48,9.48,0,0,1-1.5,4.27c-10.27,6-20.83,4.68-31.47,1.2-3.59-3.93-2.29-8.73-2.39-13.29,2-6.35-.16-13.7,4.71-19.35Z" style="fill:#7f6067"/><path d="M532.08,593.85q-.08,6.48-.14,13a2.23,2.23,0,0,1-1.19,3.31,2.52,2.52,0,0,1-2.8-2.36c-.19-5-.05-9.91-.11-14.87-.27-5.7-3.12-11.54.88-17q.45-1.2,1-2.37l2.3,3A35,35,0,0,1,532.08,593.85Z" style="fill:#cdadac"/><path d="M532.08,593.85q0-8.69-.08-17.38a16.61,16.61,0,0,0,2-1C533.65,581.61,536.15,588.08,532.08,593.85Z" style="fill:#826e68"/><path d="M528.72,575.88v17.76c-.23,1.18-.83,1.52-1.9.86l-2.22-5.4.18-18.09Z" style="fill:#431d20"/><path d="M689,676.14c12.63-5.13,25.74-1.41,38.61-2.16a3.84,3.84,0,0,1,.66,3c-.24,1.57-1,3-1.09,4.63,0,.84,0,1.68,0,2.52-8.77,0-17.1-3.47-26.06-2.8-4.9.36-8.94,1.24-12.26,4.83C689,682.81,689,679.48,689,676.14Z" style="fill:#cbb7a0"/><path d="M791.57,704.78l15.39-.2C801.88,708.6,796.75,708.26,791.57,704.78Z" style="fill:#6b4d5c"/><path d="M701.27,647.86l.39,2.69-7.82,7.76c-.34-3.06,1.07-7.85-5.09-5.13a1.3,1.3,0,0,1-.75-1.29c.07-.52.19-.78.34-.78.12-1.2.23-2.39.34-3.59-1.54-1.65-1.36-3.39-.27-5.19C694.22,640.64,698.47,642.57,701.27,647.86Z" style="fill:#decfae"/><path d="M634.64,637.75c12.78,2.13,26.07-3.29,38.6,2.6-.22,6.62-3,9.51-10.25,10.11-11.15.92-100,2.26-110.71,7.87-1.92-3.16-3.32-19.61-2.57-23.16C550.79,632,631.91,638.87,634.64,637.75Z" style="fill:#daccab"/><path d="M572.88,653.44c-11.57,10.67-25.59,13.57-36,7.46-3.87-2.18-5.84-5.11-3.78-9.62,9.07-5,19-2.58,28.53-3.09a41,41,0,0,1,5.31,1.38C569.33,650.18,571.6,651,572.88,653.44Z" style="fill:#dddbb2"/><path d="M534.24,650.64c-.33,3.72.85,7.06,2.6,10.26-5.88-.71-1.11,8.81-7.4,7.69-.28-1.64-.56-3.27-.85-4.91-1.57-6.94-.37-14-.71-20.93a3.24,3.24,0,0,1,2-3.18c2.4,0,3.43,1.6,4.25,3.48A12.45,12.45,0,0,1,534.24,650.64Z" style="fill:#f1e0bb"/><path d="M621.65,608.58c17,1.63,34.08,1.08,51.12.3,3.57,2.79,3.42,6.36,2.62,9.08-17.67-6.92-36-1.61-53.78-3.55-1.4-1.61-1.38-3.17.18-4.67Z" style="fill:#d1bba7"/><path d="M693.78,617.09c-.82,0-1.64,0-2.46,0l-2.59-2.43-.18-.11c-1.26-1.79-1.51-3.54.19-5.21l23.15-.74-.09,1.1c1,2.73-.22,4.68-2.23,6.36C704.4,617.61,699.5,623.48,693.78,617.09Z" style="fill:#cfbaa6"/><path d="M688.34,651.11a2.14,2.14,0,0,0,.41,2.07c-1.15,2.53.64,6-2.54,7.88q-1.15-5.71-2.3-11.42C685.39,650.12,686.86,650.62,688.34,651.11Z" style="fill:#53342e"/><path d="M688.87,640.14c.68.63.89,1.25.63,1.85s-.49.88-.73.88l-.09,4.66" style="fill:#edd3c7"/><path d="M688.74,609.3c-.06,1.73-.12,3.47-.19,5.21L683.84,612c-.47-3.88-2.08-8.47,4.83-7.76C688.69,605.94,688.72,607.62,688.74,609.3Z" style="fill:#e1cbb4"/><path d="M529.45,640.4q-.42,11.64-.86,23.28a3.91,3.91,0,0,1-1.51-.72q-.12-34.23-.26-68.46c.62-.31,1.25-.6,1.9-.86q.46,7.9.92,15.82a16.26,16.26,0,0,1,2.39,4C532.56,622.55,535.15,631.87,529.45,640.4Z" style="fill:#91706e"/><path d="M520.81,590.85c-7.12-5-1.06-9.67.35-14.45Q521,583.63,520.81,590.85Z" style="fill:#5f3a3e"/><path d="M559.92,576c-8.08,2.65-16.28,6.23-23-2.7,8.19-4.24,17-1.87,25.53-2.4C563.74,573.66,562.32,575.07,559.92,576Z" style="fill:#85696c"/><path d="M562.59,604.33l5.2,4.58a7.55,7.55,0,0,1-3.53,3.12c-10.85.79-22,4.27-32.09-2.87a7.7,7.7,0,0,1-.23-2.34C542.13,605.62,552.73,609.55,562.59,604.33Z" style="fill:#826e68"/><path d="M565.3,601.53l-2.72.19c-5-7.26-1.53-15.47-2.56-23.17l4.46,7.63c2.63,1,3,3.24,3.12,5.66C567.77,595.29,566.3,598.35,565.3,601.53Z" style="fill:#85696c"/><path d="M532.17,609.16l32.85.54c2.75,6.17-1.87,7.66-6,8-8.26.69-16.65,2.52-24.89-.43a8.66,8.66,0,0,1-4.59-5.12c0-.9,0-1.8.07-2.69A19.64,19.64,0,0,0,532.17,609.16Z" style="fill:#d0c4a7"/><path d="M688.77,642.87c0-.91.07-1.82.1-2.73a13.76,13.76,0,0,1,15.08.05l-2.67,7.67Z" style="fill:#d2c3a4"/><path d="M534.24,650.64c-2-1.26-2.44-3.2-2.39-5.36,4.14-7.54,11.36-6,18-6.15,4.55.14,9.27-.4,13.09,3,2,2.92,1.94,5.74-.42,8.44C553.12,650.81,543.69,654.88,534.24,650.64Z" style="fill:#e2ccad"/><path d="M549.74,642.86c-6,.19-12.26-.85-17.89,2.42-.07-1.63-.15-3.26-.22-4.89-1.57-1.75-1.23-3.64-.42-5.57,7-3.77,14-4.58,21.07-.22C554.91,638.42,553.1,640.88,549.74,642.86Z" style="fill:#cac09e"/><path d="M531.84,635.1l-.21,5.28h-1.09l-1.09,0,.12-28.24,2.23,2.56C536.91,621.5,537.45,628.3,531.84,635.1Z" style="fill:#dfc6ae"/><path d="M570.67,612.44a14.93,14.93,0,0,1-.55,2.19c-4.23,6.25-.32,15.44-7.48,20.63-.08.76-.16,1.53-.26,2.29-2.22.77-3.39-.56-4.41-2.19-1.69-2.87-.79-6.43-2.51-9.48-2.3,2.37-.41,5.62-2,8q-.59.68-1.2,1.35l-20.46-.14q0-10.19,0-20.38c8.13,0,16.25-.05,24.37-.14,3.78,0,8.05.63,8.85-4.88l2.77-.79,2.56.16a2.47,2.47,0,0,1,.81,2.19C571,612.05,570.87,612.44,570.67,612.44Z" style="fill:#bbad8f"/><path d="M560,635.15l2.38,2.4c0,1.76.07,3.51.1,5.26l-12.74.05,2.56-7.62,0-.1C554.86,633.08,557.43,633.07,560,635.15Z" style="fill:#d6ba9f"/><path d="M560,635.15h-7.72c-.3-5.2-5.11-10.32-.37-15.59,1.51-1.68,3.94-2.84,5.6-1.21C562.43,623.16,559,629.54,560,635.15Z" style="fill:#c3a88d"/><path d="M392.76,717.49c-.24-6.93-9.8-47.76-8.56-54.88-3.78-12.16,6.89-21.81,8.86-28.8,1.38.14,2.69,42.48,3.6,43.53,1.61,2.25,2,4.87,2.34,7.52.34,4.52.15,9,0,13.57-.36,3.93,1.12,7.57,1.91,11.32a23.93,23.93,0,0,1,0,8,7.57,7.57,0,0,1-3.29,5Z" style="fill:#2a0619"/></svg>