<?xml version="1.0" encoding="utf-8"?>
<!-- Generator: Adobe Illustrator 23.0.6, SVG Export Plug-In . SVG Version: 6.00 Build 0)  -->
<svg version="1.1" id="圖層_1" xmlns="http://www.w3.org/2000/svg" xmlns:xlink="http://www.w3.org/1999/xlink" x="0px" y="0px"
	 viewBox="0 0 1708.7 1706.5" style="enable-background:new 0 0 1708.7 1706.5;" xml:space="preserve">
<style type="text/css">
	.st0{opacity:0.9;fill:#FF7403;}
</style>
<title>sun2</title>
<polygon class="st0" points="853.2,853.2 298.9,1505.6 200.9,1407.6 "/>
<polygon class="st0" points="853.2,853.2 148.9,1339.9 79.7,1219.9 "/>
<polygon class="st0" points="853.2,853.2 47,1141 11.1,1007.2 "/>
<polygon class="st0" points="853.2,853.2 0,922.5 0,784 "/>
<polygon class="st0" points="853.2,853.2 486.6,1626.8 366.6,1557.5 "/>
<polygon class="st0" points="853.2,853.2 699.3,1695.3 565.5,1659.5 "/>
<polygon class="st0" points="853.2,853.2 200.9,298.9 298.9,200.9 "/>
<polygon class="st0" points="853.2,853.2 366.6,148.9 486.6,79.7 "/>
<polygon class="st0" points="853.2,853.2 565.5,47 699.3,11.1 "/>
<polygon class="st0" points="853.2,853.2 784,0 922.5,0 "/>
<polygon class="st0" points="853.2,853.2 79.7,486.6 148.9,366.6 "/>
<polygon class="st0" points="853.2,853.2 11.1,699.3 47,565.5 "/>
<polygon class="st0" points="853.2,853.2 1436.2,226.3 1529.7,328.6 "/>
<polygon class="st0" points="853.2,853.2 1578.5,398.6 1642.4,521.5 "/>
<polygon class="st0" points="853.2,853.2 1671.5,601.8 1701.3,737.1 "/>
<polygon class="st0" points="853.2,853.2 1708.7,822.1 1702.5,960.5 "/>
<polygon class="st0" points="853.2,853.2 1254,96.8 1370.8,171.4 "/>
<polygon class="st0" points="853.2,853.2 1044.6,18.9 1176.7,60.7 "/>
<polygon class="st0" points="853.2,853.3 1480.2,1436.2 1377.9,1529.7 "/>
<polygon class="st0" points="853.2,853.2 1307.9,1578.6 1184.9,1642.4 "/>
<polygon class="st0" points="853.2,853.2 1104.7,1671.5 969.4,1701.4 "/>
<polygon class="st0" points="853.2,853.3 1609.7,1254.1 1535.1,1370.9 "/>
<polygon class="st0" points="853.2,853.3 1687.6,1044.7 1645.8,1176.8 "/>
<polygon class="st0" points="853.2,853.2 922.5,1706.5 783.9,1706.5 "/>
</svg>
