<svg id="圖層_1" data-name="圖層 1"
    xmlns="http://www.w3.org/2000/svg" viewBox="0 0 1708.73 1706.48">
    <title>sun2</title>
    <polygon points="853.24 853.24 298.9 1505.56 200.92 1407.59 853.24 853.24" style="fill:#e71f19"/>
    <polygon points="853.24 853.24 148.95 1339.86 79.67 1219.86 853.24 853.24" style="fill:#e71f19"/>
    <polygon points="853.24 853.24 47.01 1141 11.14 1007.16 853.24 853.24" style="fill:#e71f19"/>
    <polygon points="853.24 853.24 0 922.52 0 783.96 853.24 853.24" style="fill:#e71f19"/>
    <polygon points="853.24 853.24 486.62 1626.81 366.62 1557.53 853.24 853.24" style="fill:#e71f19"/>
    <polygon points="853.24 853.24 699.33 1695.34 565.49 1659.48 853.24 853.24" style="fill:#e71f19"/>
    <polygon points="853.24 853.24 200.92 298.9 298.9 200.92 853.24 853.24" style="fill:#e71f19"/>
    <polygon points="853.24 853.24 366.62 148.95 486.62 79.67 853.24 853.24" style="fill:#e71f19"/>
    <polygon points="853.24 853.24 565.49 47.01 699.33 11.14 853.24 853.24" style="fill:#e71f19"/>
    <polygon points="853.24 853.24 783.96 0 922.52 0 853.24 853.24" style="fill:#e71f19"/>
    <polygon points="853.24 853.24 79.67 486.62 148.95 366.62 853.24 853.24" style="fill:#e71f19"/>
    <polygon points="853.24 853.24 11.14 699.33 47.01 565.49 853.24 853.24" style="fill:#e71f19"/>
    <polygon points="853.24 853.24 1436.16 226.32 1529.67 328.58 853.24 853.24" style="fill:#e71f19"/>
    <polygon points="853.2 853.24 1578.52 398.56 1642.37 521.53 853.2 853.24" style="fill:#e71f19"/>
    <polygon points="853.2 853.24 1671.49 601.77 1701.34 737.09 853.2 853.24" style="fill:#e71f19"/>
    <polygon points="853.24 853.21 1708.73 822.1 1702.54 960.52 853.24 853.21" style="fill:#e71f19"/>
    <polygon points="853.24 853.24 1254.04 96.81 1370.83 171.39 853.24 853.24" style="fill:#e71f19"/>
    <polygon points="853.24 853.24 1044.61 18.86 1176.71 60.66 853.24 853.24" style="fill:#e71f19"/>
    <polygon points="853.24 853.28 1480.16 1436.2 1377.9 1529.71 853.24 853.28" style="fill:#e71f19"/>
    <polygon points="853.24 853.24 1307.93 1578.56 1184.95 1642.41 853.24 853.24" style="fill:#e71f19"/>
    <polygon points="853.24 853.24 1104.71 1671.53 969.4 1701.38 853.24 853.24" style="fill:#e71f19"/>
    <polygon points="853.24 853.28 1609.67 1254.08 1535.1 1370.87 853.24 853.28" style="fill:#e71f19"/>
    <polygon points="853.24 853.28 1687.63 1044.65 1645.83 1176.75 853.24 853.28" style="fill:#e71f19"/>
    <polygon points="853.21 853.24 922.49 1706.48 783.92 1706.48 853.21 853.24" style="fill:#e71f19"/>
</svg>