<svg id="圖層_1" data-name="圖層 1" xmlns="http://www.w3.org/2000/svg" viewBox="0 0 100 200"><title>未命名-1</title><path d="M65,2.2C76.2.6,92.22,8.61,96.8,21.14a60.09,60.09,0,0,1,1.85,8.3c0,4.27-.11,16.27-1.62,19.22-3.21,6.27-7.09,12-14.42,14.42L81,64.69c-1.46,2-2.87,3-4.13-.16a5.41,5.41,0,0,1,.33-2.29c1.38-2.69,3.85-4.3,6.09-6.16,10.92-9,13.55-19.34,8.49-33.2C90,18.5,62.93,8.37,65,2.2Z" style="fill:#160818"/><path d="M79.4,87.11c-2.5,1.18-2.85,3.38-3.3,5.87-3.38,18.87-6.61,37.77-7.75,56.92-.35,5.87-4.46,10.27-4.76,15.91-.94.49-3.46,5-4.13,4.14-2.53-7.47,2.32-19.37,3-26.61C64,128.05,66.1,112.86,68.53,97.7a78.24,78.24,0,0,1,2.26-10.87,16,16,0,0,1,1.14-3.65c.65-2.78.24-5.69.95-8.47a24.07,24.07,0,0,0,1.19-5.95c.56-2,.7-4.34,3.69-4.13,1,1.64,2.16.29,3.25.06Q80.2,75.9,79.4,87.11Z" style="fill:#090e19"/><path d="M85.81,10c3.08,3.69,6.08,7.25,7.94,11.54,7.9,18.2-.33,28.17-15.86,35.41a92.54,92.54,0,0,1-19.82.47C45.18,56,34.7,43.38,36.65,31.88c6.3-2.56,4.67,4.19,7.17,6.09,3.42,7.66,8.45,10.54,17.65,10.85,8.77.28,14.84-1.82,21.33-6.93,6-4.71,8.12-10,6.49-17.16a28.71,28.71,0,0,0-3.1-5.33c-.67-.79-1.31-1.6-2-2.41-1.66-2.33-4-4-5.88-6.15C77.49,9.53,48,8.56,49,7,50.11,6.37,61.78,2.2,65,2.2,71.39,2.2,84.6,8.53,85.81,10Z" style="fill:#630334"/><path d="M77.8,55.07c13.89-7.1,18.12-18.8,16-33.54,6.09,15,2.53,27.77-10.28,37.18-1.9,1.39-3.68,2.95-5.52,4.42-1.47.3-2.38,1.5-3.57,2.25-2.56.23-5.24.93-7.06-1.77-.91-3.4,1.07-5,3.86-5.87C73.49,57.05,75.83,56.54,77.8,55.07Z" style="fill:#42092f"/><path d="M74.6,64.74c.86-1.07,1.11-3.42,3.35-1.61a6.92,6.92,0,0,0-.19,1.5c-1.64,1.13-1.32,3-1.81,4.62C72.44,68.66,73.41,66.73,74.6,64.74Z" style="fill:#4d495f"/><path d="M61.82,165.62C60.42,174.74,54.54,181.3,49,188l-3.19,1.65a2.8,2.8,0,0,1-3.18.47c-2.64-7.66-2.07-9.45,4.81-12.09,3-1.15,5.21-2.51,5.84-5.78.88-4.56.09-9.73,4.85-12.85.38-.24.59-1.21.33-1.47-6.11-6.18,1.37-11.64,1.11-17.63-.19-4.16.48-8.32-1.11-12.37a16.11,16.11,0,0,1-.06-6.15c4.07-9.41,2.89-19.78,5.34-29.47,1.5-4.48,2.43-9.76,9.35-6.79Z" style="fill:#221f3b"/><path d="M74.6,64.74c.05,1.62-.26,3.36,1.35,4.52.17,1.87.33,3.73-1.19,5.22-1.2-.33-2-1.33-3-1.91-1.86-.67-3.57,1.29-5.45.33-1.73-2.46-.62-4.77.35-7.09a4.06,4.06,0,0,1,1.57-1.45C70.44,63.39,72.57,63.27,74.6,64.74Z" style="fill:#35364f"/><path d="M73,85.55c-2.53,1.76-7.13,1.35-6.58,6.31a6.56,6.56,0,0,1-4.08-4.79,4.85,4.85,0,0,1,.33-3.18,5.6,5.6,0,0,1,3.48-2.17,22.23,22.23,0,0,1,5-.17,5.8,5.8,0,0,1,3.17,2.14Z" style="fill:#37223f"/><path d="M74.32,83.69a2.91,2.91,0,0,1-3.13-1.38c-2.9-4.33-1.77-8,2-11.1l1.59,3.27Q74.54,79.08,74.32,83.69Z" style="fill:#4b4a64"/><path d="M40.7,18l1.93-2.83a1.45,1.45,0,0,1,2-.22,6.3,6.3,0,0,1,1.4,4.2c.06.73,0,1.47,0,2.2a17.65,17.65,0,0,0,7.08,12.9q1.73,1.34,3.42,2.71c8.82,6.54,19.25,3.86,23.53-6.13,1-2.4,1.61-5,2.45-7.45.48-1.39,1-2.78,1.37-4.21a4.54,4.54,0,0,1,2-2.58l1.54,1.67c1.26,3.73,3.88,7.09,3.07,11.38A8,8,0,0,1,90.07,32c-6,10.34-14,17.34-26.82,16.63a11.83,11.83,0,0,1-2.36-.37c-7.82-2.18-15.31-4.89-19.47-12.7C37.82,29.8,36.89,24,40.7,18Z" style="fill:#b10140"/><path d="M36.19,42.23c.8-6.4-1.84-13.06,1.5-19.25A8.91,8.91,0,0,1,37.75,31c.33,14.45,9.84,24,24.07,24,5.33,0,10.65,0,16,0-1.41,2.62-3.33,4.57-6.49,4.85-2.8.26-3.13,2.21-3,4.44l0,.43a7.73,7.73,0,0,1-3.19,1.71c-4.6.4-8.61-1.53-12.68-3.22a9.6,9.6,0,0,1-3.59-2.88c-1.45-.68,1.54-2-.53-2.83-6.59-2.52-9.86-8-12.15-14.24Z" style="fill:#510431"/><path d="M90.59,23.06c3.08,8.46.31,13.52-4.9,19.62C76.85,53,65.27,51.16,54.57,51.08c-5.41,0-11-5-12.06-12l1.07-.43c5.15,4.79,11.39,7.2,18.19,8.42h0c11.52,1.85,22.76-4.76,27.24-16v0C91,28.66,88.72,25.45,90.59,23.06Z" style="fill:#85073a"/><path d="M74.52,7c1,.06,2.31,1.52,3.28,1.59.68,1,1,.59,1.65,1.58.65,1.88-.21,3.24-1.5,4.47-7.15,3.61-14.38,6.57-22.45,2.81a3.35,3.35,0,0,1-.75-2.17C56,12,58.93,11.63,61.84,11.22A33.56,33.56,0,0,0,74.52,7Z" style="fill:#f64c5c"/><path d="M37.75,32.64c-1.12-2.44,0-7-.06-9.66a6.74,6.74,0,0,1,3-5c-.9,6.11-1.81,12.23,1.87,17.87a2.2,2.2,0,0,1,0,3.19l-.09.06C39.59,37.19,39.12,35.62,37.75,32.64Z" style="fill:#85073a"/><path d="M77.76,13.41l1.69-3.22c3.26,1,5.06,3.48,6.47,6.36-.09,1.08-.17,2.16-.26,3.25-3,1.07-4.79-1-6.9-2.41C77.79,16.22,76.84,15.05,77.76,13.41Z" style="fill:#d93453"/><path d="M90.59,23.06c-.32,2.7,1,5.71-1.57,8L87.46,18.22C88.51,19.83,89.55,21.45,90.59,23.06Z" style="fill:#9f013a"/><path d="M74.52,7c1.2,2.27,0,2.75-2,3.69-5.48,2.62-11.7,1.94-17.16,4.34-2.41,2-8.49,1.77-11.21,0-1.49-1.89,3.6-3.44,4.8-4.81,5.83-3.58,12.46-.54,18.55-2.68-4,.8-8.05,2.44-12-.46C61.82,3.93,68.17,4.14,74.52,7Z" style="fill:#fc7b7a"/><path d="M55.49,7.07h14c-6.66,3-13.57,4.15-20.6,4.7-.61-4.16,3.16-3.41,5.19-4.62A7.21,7.21,0,0,0,55.49,7.07Z" style="fill:#f28f8d"/><path d="M54.1,7.15c-1.36,2-6.23,3.59-6.74,4.66a18.32,18.32,0,0,0-2.87,3.63c-.33.53-7.72,10.9-8.34,10.79C36,21.74,46.74,9.62,49.06,7.08A14.52,14.52,0,0,0,50.54,7Z" style="fill:#6e1428"/><path d="M39.46,195.46c-2.31.33-60.52,7.36-62.74,6.89-1.43-.3,0-2.2.69-3.45,5.82-2,58.28-11.5,65.15-9.26,1.07,0,21.29-24.87,21-23.83C62.21,171.32,49.11,194.08,39.46,195.46Z" style="fill:#241908"/><path d="M36,193.39c-6,1.12-59.39,8.75-60,7.58-1-3-3.15-22-.69-24.13,22.41-3.1,76.24-11.36,77.8-28.29a47.22,47.22,0,0,1,3.09-14c1.58-1.74,1.76-4.44,3.92-5.8,5.15,7.58,1.25,15-1.2,22-1.09,3.11-4.56,4.74,1.68,3.34,0,2.91.83,6.41-2.28,8-1.41.72-2.33,1.66-2.26,2.6.61,8.62-5.93,15.36-11.11,25.25C42.56,194.55,38,190.78,36,193.39Z" style="fill:#232146"/><path d="M63.61,86.81l2.85,5c-1.07,6.42-2.48,12.8-3.1,19.26-.38,4-1.07,7.79-3.21,11.24l-1.19.45a3.9,3.9,0,0,1-1.79-1.73c-2.46-7,1.08-13.66,1.06-20.51,1-3,.94-6.22,1.92-9.22A12.43,12.43,0,0,1,62,87.83,3.22,3.22,0,0,1,63.61,86.81Z" style="fill:#606572"/><path d="M58.67,122.47c.5,0,1-.09,1.48-.11v6.42c-.21,2.17.71,4.62-1.58,6.27C55.43,130.83,55.31,126.63,58.67,122.47Z" style="fill:#5e6471"/><path d="M73.17,71.21q-1,5.55-2,11.1c-1.58,1.15-3.22.71-4.87.2l-.82-.89a8.82,8.82,0,0,1-.39-7.08,3.92,3.92,0,0,1,1.57-1.8C69.3,74.11,69.21,64.12,73.17,71.21Z" style="fill:#1c1e3c"/><path d="M66.69,72.74a5.4,5.4,0,0,0-.17,1.44c-1.06,2.74-1.59,5.48-.11,8.25l-.08.08-2.64,1.67a2.66,2.66,0,0,1-2.18.3A4.83,4.83,0,0,1,59,80.84C59.8,75.14,60.23,69.3,64.8,65l3.44-.17C67.72,67.44,67.21,70.09,66.69,72.74Z" style="fill:#686c79"/><path d="M61.52,83.78l2.17.4c0,.88,0,1.75-.08,2.63l-.46.59c-2.72,2-5.71,2.24-8.88,1.36a3.67,3.67,0,0,1-2.57-2.84A4.24,4.24,0,0,1,54,82.79C56.71,81.5,59.17,82.24,61.52,83.78Z" style="fill:#6c5857"/><path d="M55.28,37.48a3.18,3.18,0,0,1-3.12-1.64c-1.4-2.06-1.47-4,.71-5.56,8.42-2.45,17-.73,25.55-1.13,2.22,1.91,2.24,3.91.46,6.19C73,42.79,63.28,43.71,55.28,37.48Z" style="fill:#f60244"/><path d="M55.28,37.48c7.38,4.8,14.16,3.82,21-1.52,2.67-2.09,3.15-3.84,1.55-6.53-3-2.86-6-5.71-.45-9A6.59,6.59,0,0,1,80.81,20a4,4,0,0,1,3.32,3c-.56,10-5.34,16.7-15.06,19.73C63.05,44.59,58.34,43.27,55.28,37.48Z" style="fill:#f2034b"/><path d="M81,21.38l-3.18.11C70.09,26.72,61.49,26,52.9,25.38c-3.1-.83-6.8-.35-8.72-3.86,0-.54,0-1.09,0-1.63A13.54,13.54,0,0,1,46,18.36a19,19,0,0,1,8.22-1.14c5.34,2.56,10.81,1.28,16.27.56,2.8-.37,5.55-2,8.44-.33C80.53,18.3,81.69,19.36,81,21.38Z" style="fill:#fb1f54"/><path d="M44.18,21.52l6.38,1.55c2,2.29,4.12,4.51,3.2,8-1.75,1.2-1.56,3-1.6,4.81C46.74,32.61,44.21,27.76,44.18,21.52Z" style="fill:#f2034b"/><path d="M89,31.05c-2.07,11.78-16.07,20-27.24,16C74.34,47.67,82.31,40.42,89,31.05Z" style="fill:#9f013a"/><path d="M42.6,39c0-1.06,0-2.13,0-3.19,5.14,5.9,12.53,7.94,19.19,11.24C53.85,48,48,44.08,42.6,39Z" style="fill:#9f013a"/><path d="M45.79,19.78l-1.6.11.3-4.46L47.38,15l8,.06,0,1.53a2.23,2.23,0,0,1-1.79.84C51.13,18.73,48.28,18.68,45.79,19.78Z" style="fill:#f15a6a"/><path d="M81,21.38c-.53-1.06-1.06-2.11-1.58-3.17A1,1,0,0,1,79,17.12c.14-.35.28-.52.41-.52,2.68-.1,4.15,2.16,6.24,3.2A2.94,2.94,0,0,1,84.13,23Z" style="fill:#e8224d"/><path d="M64.8,65q-2.27,7.85-4.54,15.68c-3.43.38-2.6-2.26-2.75-4-.18-2.14,1.18-4.48-.57-6.36-3.86.25-2,7.18-7.1,5.37-1.69-2.16-1.47-4.72-1.56-7.22a23.14,23.14,0,0,1,.11-2.63c.48-2.18.71-4.58,3.82-4.54Z" style="fill:#b4a8a4"/><path d="M48.91,61.47c.05-.55.1-1.1.16-1.66l3.14,1.4c-2.16,1.11-1.15,3.44-2,5.08C47.12,65.43,47.6,63.57,48.91,61.47Z" style="fill:#5a3c54"/><path d="M79.42,16.6c0,.54,0,1.07,0,1.61-8.55,1.07-17.09,4.59-25.63,0-.55-.36-.72-.71-.52-1s.39-.5.58-.5c.51,0,1,0,1.54-.06,7.86,1.68,15.09-1.09,22.42-3.17C78.32,14.47,78.87,15.53,79.42,16.6Z" style="fill:#fb3556"/><path d="M-20.52,181c-2.07,0-1.53-1.47-2.07-4.14,2.14.52,46.17-9,48.26-9.65,4.14-1.38,8.51-5.81,12.33-7.91.6,8.22-2.88,11.66-14,13.87C23.12,173-19.66,181-20.52,181Z" style="fill:#161c24"/><path d="M55.46,149.59c-1,12.25-5.26,31.14-15.31,39-4.44,3.46-46.23,9-52.4,6.21-.34-.41,39.14-14.34,40.6-14.78,2.65-.79,5.88-.07,7.7-3,2.11-2.39,4.61-4.36,6.84-6.61,3.73-3.21,5-7.66,6.34-12.14,1.37-3.12-.24-7.5,4-9.38A2.62,2.62,0,0,1,55.46,149.59Z" style="fill:#5e6471"/><path d="M55.46,149.59l-1.83,0c-2.9-6.36,0-22.86,4.77-27.32l.27.23q0,6.28-.1,12.58A51.39,51.39,0,0,0,55.46,149.59Z" style="fill:#606572"/><path d="M58.4,122.24c-1.41,9.14-5,17.9-4.77,27.32l-2.79,9.87-1-.45a7.2,7.2,0,0,1-1.39-1.77c-1-5.27-4.07-10.54-.14-15.87.67-1.18,1.48-2.28,2.12-3.48a19.7,19.7,0,0,0,1.43-5.77c1.47-9.28,2.6-18.6,3.46-28,.23-2.51,0-5.39,3.11-6.58a2.42,2.42,0,0,1,2,.84Z" style="fill:#d1d4c0"/><path d="M60.35,98.39l-2-.2c-2.66-3-2.5-6.19-.4-9.42,1.92-1,3.6-1.44,3.84,1.6Z" style="fill:#dee0cb"/><path d="M61.84,90.37a3.1,3.1,0,0,0-3.47-1.28,3.59,3.59,0,0,1-4.27.28,1.51,1.51,0,0,1-.6-1.26c0-.49.09-.74.21-.74l9.44,0A3,3,0,0,1,61.84,90.37Z" style="fill:#b9b2b5"/><path d="M66.41,82.43c-4.08-2.8-1.46-5.52.11-8.25Q66.47,78.31,66.41,82.43Z" style="fill:#37223f"/><path d="M53.67,83.87l-3.36-1.46c-.61-2.19-1.16-4.38.4-6.43,1.52-1.74,1.3-3.88,1.39-6,.14-3,1.57-4.44,4.53-3.47,2,.66,4.45.77,4,4.48-.42,3.1-2.83,6.35-.33,9.6l1.26,3.14Z" style="fill:#ece9da"/><path d="M53.71,87.37a11.82,11.82,0,0,1,.18,1.17c2.2,8.33-.67,16.34-1.7,24.45-.22,1.68-1.29,4.76-4.08,1.58.15-4-.39-8,.66-12,.32-5.76-.06-11.65,3.12-16.87Z" style="fill:#dee0cb"/><path d="M53.76,31a8.06,8.06,0,0,1-3.2-8c9.09-.23,18.24.64,27.21-1.58-3.87,2.66,1.37,5.29,0,7.94C70.06,34.1,61.78,30.57,53.76,31Z" style="fill:#fb0455"/><path d="M53.8,16.64c0,.52,0,1-.06,1.54a12.41,12.41,0,0,1-8,1.6C48.06,17.72,51,17.26,53.8,16.64Z" style="fill:#f64c5c"/><path d="M50.71,76c-.13,2.14-.27,4.29-.4,6.43-2.76-4.83-1.31-9.67-.06-14.51C50.4,70.59,50.56,73.28,50.71,76Z" style="fill:#5a3c54"/><path d="M48.77,102.61q.09,6.66.2,13.34c.07.35.14.71.22,1.06.51,2.51.26,5,.32,7.58a24.87,24.87,0,0,1-.58,4.47c-1.14,2.95-.85,6.06-1,9.12a15.8,15.8,0,0,1-.27,2.36,16.08,16.08,0,0,0-1.4,10.39,19.79,19.79,0,0,1-1.4,5.78c-1.9,5.6-4.44,10.83-8.86,14.93-3.2,2.15-6.56,3.92-10.49,4.3-.76-.07-44.68,7.52-45.33,7.11-.09-1.06-.6-1.71-.69-2.76,2.79-1.09,28.9-5.12,40.68-8.28,15.46-4.14,17.1-7.89,17.84-12.73,5.82-11.73,4.86-24.81,7.39-37.19C46.72,115.64,46.51,108.91,48.77,102.61Z" style="fill:#d1d4c0"/><path d="M24.87,175.21l9.77-4.7c3.68,1.63,3.87-2.3,5.65-3.64s2.82-4.69,6.1-2.41c.71,2.94-1,5.16-2.25,7.5l-6.45,6.41a13.48,13.48,0,0,1-8.4,2.45c-.72,0-1.44,0-2.16,0-2.05-.92-1.4-3-2-4.57Z" style="fill:#e2e1cf"/><path d="M44.14,172l1.56-8c-1.6-4.41,1-5.1,4.47-5.09l.67.52C49.89,164.3,48.77,169.07,44.14,172Z" style="fill:#d1d4c0"/><path d="M26.56,180l1.82.16c.39.39.49.75.3,1.07s-.33.45-.48.45c-1.12.5-42.78,14.62-43.9,15.12-1.57-2.47-5-11.69-4.82-14.48.5,0,44.89-7.14,45.39-7.15l.08,0C26.79,176.4,25.5,178.61,26.56,180Z" style="fill:#d6dcc6"/><path d="M28.2,181.72a5.6,5.6,0,0,1,.18-1.52l9.31-1.83C35.68,182.76,31.73,181.64,28.2,181.72Z" style="fill:#aab4a8"/><path d="M45.75,140v-1.64c2.07-2.94-.35-6.61,1.55-9.59l.13-4.74c1.81-2.44-.34-5.64,1.54-8.07h0c2.36-7,2.59-14.4,3.26-21.69.19-2.05-.29-4.21,1.65-5.71l4.49.54,0,9.1-4.77,35.19c-1.66,1.33-2.69,2.86-1.65,5.07-.51,1-1,2-1.52,2.93C48.42,142.51,47,141.45,45.75,140Z" style="fill:#f9f8e4"/><path d="M50.17,158.91c-1.54,1.65-4.38,2.16-4.47,5.09-2.74,3-5.18,6.41-8.3,9-4,3.3-2.24-1.14-2.76-2.46A37.49,37.49,0,0,0,42.84,156a4.49,4.49,0,0,1,3-1.14,8.62,8.62,0,0,1,4.44,3A7.49,7.49,0,0,1,50.17,158.91Z" style="fill:#f3fade"/><path d="M50.3,157.85,45.8,156c-1-1.43.21-3.59-1.6-4.74,0-3.82-.55-7.73,1.55-11.26l4.71,1.39C45.88,146.83,50.05,152.36,50.3,157.85Z" style="fill:#dee0cb"/><path d="M52,138.45c-2.67-2.07-2.33-3.11,1.65-5.06Z" style="fill:#dee0cb"/><path d="M44.2,151.25c4,.4,2.38,2.71,1.6,4.74l-3,0C43.29,154.39,43.74,152.82,44.2,151.25Z" style="fill:#fafee3"/><path d="M47.3,128.76c-.36,3.23,1.23,6.76-1.55,9.59C46.17,135.14,44.68,131.62,47.3,128.76Z" style="fill:#dee0cb"/><path d="M49,116c-.25,2.74.85,5.74-1.54,8.07C47.65,121.28,46.53,118.27,49,116Z" style="fill:#dee0cb"/><path d="M26.56,180c-1.81-1.18-1.6-3-1.61-4.81C29,175.68,27.4,178,26.56,180Z" style="fill:#e7ecdf"/></svg>