<?xml version="1.0" encoding="utf-8"?>
<!-- Generator: Adobe Illustrator 24.0.2, SVG Export Plug-In . SVG Version: 6.00 Build 0)  -->
<svg version="1.1" id="圖層_1" xmlns="http://www.w3.org/2000/svg" xmlns:xlink="http://www.w3.org/1999/xlink" x="0px" y="0px"
	 viewBox="0 0 1200 1200" style="enable-background:new 0 0 1200 1200;" xml:space="preserve">
<style type="text/css">
	.st0{fill:#BCA47A;}
	.st1{fill:#D1AB88;}
	.st2{fill:#D0CDCD;}
	.st3{fill:#B12A2C;}
	.st4{fill:#942724;}
	.st5{fill:#BF3B3E;}
	.st6{fill:#A33836;}
	.st7{fill:#C4A883;}
	.st8{fill:#9A8062;}
	.st9{fill:#CAC49D;}
	.st10{fill:#312D23;}
	.st11{fill:#464539;}
	.st12{fill:#050303;}
	.st13{fill:#DBDBDB;}
</style>
<g>
	<path class="st9" d="M844.3,672.5H209c-20.9,0-37.9-17-37.9-37.9V370.4c0-20.9,17-37.9,37.9-37.9h635.3c20.9,0,37.9,17,37.9,37.9
		v264.2C882.2,655.6,865.2,672.5,844.3,672.5z"/>
	<path class="st10" d="M407.1,628.7h-4.2c-3.5,0-6.3-2.8-6.3-6.3V392.4c0-3.5,2.8-6.3,6.3-6.3h4.2c3.5,0,6.3,2.8,6.3,6.3v229.9
		C413.5,625.8,410.6,628.7,407.1,628.7z"/>
	<path class="st10" d="M648.6,628.7h-4.2c-3.5,0-6.3-2.8-6.3-6.3V392.4c0-3.5,2.8-6.3,6.3-6.3h4.2c3.5,0,6.3,2.8,6.3,6.3v229.9
		C654.9,625.8,652.1,628.7,648.6,628.7z"/>
	<path class="st9" d="M639,508c-0.1-0.5-0.1-1,0.1-1.5c2.6-2.3,5.2-4.6,7.8-7c2.3,2.5,4.7,5,7.1,7.5c-2.2,2.6-4.5,5.3-7,8.3
		C644.1,513.2,642.8,509.1,639,508z"/>
	<path class="st9" d="M397.7,508.3c-0.1-0.5-0.1-1,0.1-1.5c2.6-2.3,5.2-4.6,7.8-7c2.3,2.5,4.7,5,7.1,7.5c-2.2,2.6-4.5,5.3-7,8.3
		C402.7,513.5,401.5,509.3,397.7,508.3z"/>
</g>
</svg>
